<?xml version="1.0" encoding="utf-8"?>
<!-- Generator: Adobe Illustrator 19.2.1, SVG Export Plug-In . SVG Version: 6.00 Build 0)  -->
<svg version="1.1" id="Layer_1" xmlns="http://www.w3.org/2000/svg" xmlns:xlink="http://www.w3.org/1999/xlink" x="0px" y="0px"
	 viewBox="0 0 373.9 100.7" style="enable-background:new 0 0 373.9 100.7;" xml:space="preserve">
<style type="text/css">
	.st0{fill:#43525A;}
	.st1{fill:#00A69C;stroke:#00A69C;stroke-width:1.5236;stroke-miterlimit:10;}
	.st2{fill:#00A69C;}
</style>
<title>logo-big</title>
<g>
	<path class="st0" d="M87,68.8c0,2.7-2.4,5-5,5c-3,0-5.4-2.4-5.4-5v-44c0-3,2.4-5,5-5s5,2.4,5,5v20.5h-3.7V24.5c0-0.7-0.7-1-1.3-1
		s-1,0.3-1,1v44.3c0,0.7,0.7,1.3,1.3,1.3c0.7,0,1.3-0.7,1.3-1.3V48h4v20.8H87z"/>
	<path class="st0" d="M107.8,24.9v23.8h-4V24.5c0-0.7-0.3-1-1-1c-0.7,0-1.3,0.3-1.3,1v49h-4V24.9c0-0.7-0.7-1.3-1.3-1.3v-3.4
		c1,0,2,0.3,3,1c1-1,2.4-1.3,3.7-1.3C105.4,19.8,107.8,22.2,107.8,24.9z"/>
	<path class="st0" d="M128.6,100.7h-4V73.9c-0.3,0-0.7,0-1,0c-3,0-5-2.4-5-5V20.1h4v49c0,0.7,0.7,1.3,1.3,1.3c0.7,0,1.3-0.7,1.3-1.3
		v-49h4L128.6,100.7z"/>
	<path class="st0" d="M145.7,24.5c0-0.7-0.7-1.3-1.3-1.3c-0.7,0-1.3,0.7-1.3,1.3v19.1c0,0.7,0.7,1.3,1.3,1.3c2.7,0,5,2.4,5,5v18.5
		c0,3-2.4,5-5,5c-3,0-5-2.4-5-5V49.7h4v19.1c0,0.7,0.7,1.3,1.3,1.3c0.7,0,1.3-0.7,1.3-1.3V49.7c0-0.7-0.7-1.3-1.3-1.3
		c-2.7,0-5-2.4-5-5V24.9c0-3,2.4-5,5-5c3,0,5,2.4,5,5v18.8h-4V24.5z"/>
	<path class="st0" d="M163.9,69.2c0,0.7,0.7,1.3,1.3,1.3c0.7,0,1.3-0.7,1.3-1.3v-43h4v42.6c0,2.7-2.4,5-5,5s-5-2.4-5-5V0h3.4v20.1
		h6.7v3.7h-6.7V69.2z"/>
	<path class="st0" d="M192.8,73.5c-1,0-2-0.3-3-1c-1,0.7-2,1.3-3.4,1.3c-3,0-5-2.4-5-5V50.4c0-3,2.4-5,5-5c0.3,0,1,0,1.3,0V24.5
		c-0.3-0.7-1-1-1.7-1s-1.3,0.7-1.3,1.3v18.8h-4V24.9c0-3,2.4-5,5-5s5,2.4,5,5v44c0,0.7,0.7,1.3,1.3,1.3v3.4
		C192.1,73.5,192.8,73.5,192.8,73.5z M187.4,50c0-0.7-0.7-1.3-1.3-1.3s-1.3,0.7-1.3,1.3v19.1c0,0.7,0.7,1.3,1.3,1.3s1.3-0.7,1.3-1.3
		V50z"/>
	<path class="st0" d="M205.9,69.2c0,0.7,0.7,1.3,1.3,1.3v3.4c-2.7,0-5-2.4-5-5V11.8h4v57.4H205.9z"/>
</g>
<g>
	<path class="st1" d="M341.9,40c0,0.3,0.3,0.3,0.3,0.7s0.3,0.7,1,0.7c0.7,0,1.7-0.3,2.4-0.3c0.3,0,0.7,0,1-0.3
		c2.4-1.3,4.7-2.7,6.7-3.7c0.3,0,0.7,0,0.7,0c0.7-0.3,1.3-0.3,2-0.7c0.3,0,0.7,0,0.7,0c3.4-0.3,5.7,1.7,7.7,4c0.3,0.3,0.3,0.7,0.3,1
		c0.3,0.7,1,1.7,1,2.7c0,0.3-0.3,0.7-0.7,0.7c-0.7-1-1.3-2.4-2-3.7c-3-4-6-4.7-11.4-1.7c-2.4,1.3-4.4,2.4-6.7,3c-2.4,0.7-3,0.3-4-2
		c0-0.3,0-0.3,0-0.7l0,0C341.2,39.3,341.5,39.3,341.9,40z"/>
	<path class="st1" d="M258.6,14.1c0,1.3,0,3-0.7,4c0,0.3,0,0.7-0.3,1v0.3c0,0.3,0,0.7,0,1c-0.3,2.4-0.7,4.7-1.3,7.1c0,0.3,0,0.7,0,1
		c0,0.7-0.3,1-0.3,1.7c-0.3,0-0.7,0.3-0.7,0c0-4,0.7-8.1,1.3-12.4c0-0.7,0.3-1.3,0.3-2.4c0-0.3,0.3-0.7,0.3-1c0.3-0.3,0.7-1,0.7-1.7
		c0.3,0,0.3,0,0.7-0.3c0.3,0,0.3,0.3,0.3,0.3l0,0C258.9,13.4,258.6,13.8,258.6,14.1z"/>
	<path class="st1" d="M364.7,44.3c0.3-0.3,0.7-0.3,0.7-0.7c1,1.7,1.3,3.4,2,5.4c0.3,1,0.3,1.7,1,2.7c0,0.3,0,0.7,0,0.7
		c0.3,1.7,0.3,3.7,1.3,5c0,0.7,0.7,0.7,0.7,1.3l0,0c0,0.3,0.3,0.7,0.7,1c0.3,0,0.3,0.3,0.7,0.7c0,0.3-0.3,0.3-0.7,0.3
		c-0.7-0.3-1-1-1.3-1.7c-0.7-1-1.3-2-1.7-3c-0.3-0.7-0.7-1-0.3-1.7c0-2-1.3-3.7-1.7-5.7C365.7,47.7,365,46,364.7,44.3z"/>
	<path class="st1" d="M320.4,23.2c-2-0.3-3.7-0.7-5.7-0.7c-1,0-1.7,0-2.7,0c-0.3,1,0,2-0.3,2.7h-0.3c-0.3,0-0.3-0.3-0.3-0.3
		c-0.3-2.4-0.3-2.4-2.7-2.4c-0.3,0-1-0.3-1.3-0.3c-0.3-0.3-0.3-0.7,0-1c1,0,2-0.3,3-0.3c1,0.3,1-0.7,1.3-1h0.3c0,0,0,0,0.3,0.3
		c0,1.7,1.3,1.3,2.4,1.7c0.3,0.3,0.7,0.3,1,0.3c0.7,0,1,0,1.7,0.3c0.3,0,0.7,0,1,0c1,0,2-0.3,2.7,0.3C321,22.2,321,22.5,320.4,23.2z
		"/>
	<path class="st1" d="M287.5,42.6c0.3,3,0.3,6,0.7,8.7c0,0.7,0.3,1.3,0.7,2s1,1.3,1.7,1.7l0,0c0.3,0,0.3,0,0.7,0.3
		c0,0,0.3,0.3,0.3,0.7s-0.3,0.3-0.3,0.3l0,0c-0.3,0-0.3,0-0.7,0c-2.4-0.3-2.7-2-3.4-3.7c-1-3-1.3-6.4-1-9.7
		C286.8,42.3,287.1,42.3,287.5,42.6z"/>
	<path class="st1" d="M320.4,23.2c0-0.3,0-0.7,0-1c2.4,0.3,4.7,0.7,6.7,2c1.7,1,2.4,2.4,2.7,4c0,0.3,0,0.7,0,0.7
		c-0.3,0.7-0.3,1.3-0.7,2c0,0.3-0.3,0.3-0.3,0.3c-0.3,0.3-0.3,0-0.3-0.3c-0.3-1.3,0.3-2.7-0.3-4c-0.3-1-1-1.3-1.7-1.7
		C324.4,24.2,322.4,23.8,320.4,23.2z"/>
	<path class="st1" d="M304.3,37.9c0,0,0-0.3,0.3-0.3c0,0,0,0,0.3,0s0.3,0,0.7,0c0,0,0,0,0.3,0.3c-0.3,3.4-0.7,7.1-1.3,10.4
		c0,0.7-0.3,1-0.7,1.3s-0.7,0.3-1,0c-0.3-0.7-0.3-1,0-1.7c0.7-1.7,0.7-3.4,1-4.7c0-0.3,0-0.7,0-0.7c0-1,0.3-2,0.3-3
		C303.9,38.6,304.3,38.3,304.3,37.9z"/>
	<path class="st1" d="M328.4,30.9l0.3,0.3c0.3,0,0.3,0,0.3,0.3l0,0c0,0.3,0,0.3,0,0.7l0,0c0,0.3,0,0.3,0,0.7s-0.3,0.3-0.3,0.7
		c-0.3,0.3-0.3,0.7,0,1c-0.3,2.4-0.7,4.4-1.3,6.4c0,0.3,0,0.3,0,0.7l0,0V42v0.3v0.3V43c0,0,0,0.3-0.3,0.3h-0.3l-0.3-0.3l0,0
		c0.3-0.3,0-0.7,0-0.7c0-0.3,0-0.3,0-0.7c0-0.3,0.3-0.7,0-0.7l0,0c0-0.3,0-0.3,0-0.7c0.3-2.7,0.7-5.4,2-8.1c0-0.3,0-0.3,0-0.7
		C328.1,31.6,328.4,31.2,328.4,30.9z"/>
	<path class="st1" d="M255.6,38.3c0,1-0.7,2-0.3,3c0,0.3,0,0.3,0,0.7c-0.3,0.3-0.3,0.3,0,0.7c0,0.3,0.3,0.3,0,0.7
		c0,0.3,0,0.3-0.3,0.7c0,0.3,0,0.7,0,1c-0.3,0.7-0.7,0.3-0.7,0c0-0.3,0-0.7,0-0.7c0-0.3,0-0.3,0-0.7v-0.3c0.3-0.3,0.3-0.7,0-1
		c0-0.3,0-0.3,0-0.7c-0.3-0.7,0-1.3,0-2l0,0c0-0.3,0-0.7,0-1c0.3-1.7,0-3.7,1-5.4c0.3-0.3,0.7-0.3,1,0c0.3,0.7-0.3,1.3,0,2
		c0,0.3,0,0.7,0,1v0.3C255.6,37.6,255.2,37.9,255.6,38.3z"/>
	<path class="st1" d="M253.9,53.1c0,3.4,0,6.4,0.3,9.7c-0.3,0.3-0.7,0.3-1,0c-0.3-3-1-6-0.3-9.1c0.3,0,0.3-0.3,0-0.3l0,0
		C253.2,53.1,253.5,53.1,253.9,53.1z"/>
	<path class="st1" d="M341.9,40c-0.3,0-0.7,0-1-0.3c-0.7-2-0.7-4.4,0-6.4c0-0.3,0-0.3,0-0.7l0,0c0-0.3,0-0.3,0-0.7l0,0
		c0-0.3,0-0.3,0-0.7l0,0c0-0.3,0-0.3,0-0.7l0,0c0.3-0.7,0.3-1.3,1.3-0.7l0,0c0,0.3,0,0.3,0,0.7l0,0c0,0.3,0,0.3,0,0.7l0,0
		c0,0.3-0.3,0.7-0.3,1l0,0c0,0.3,0,0.3,0,0.7C341.5,34.9,341.5,37.6,341.9,40z"/>
	<path class="st1" d="M306.9,20.8c0,0.3,0,0.7,0,1c-2,0.7-4.4,0-6.7,0.3c-0.3,0.3-1,0.3-1.3,0c0-0.3-0.3-0.3,0-0.7
		C301.2,20.8,303.9,20.5,306.9,20.8z"/>
	<path class="st1" d="M260.6,54.7c-0.7-1.3-0.7-3-0.3-4.7c0.3-0.3,0.3-0.7,0-1l0,0c0.3-0.3,0.7-0.3,1,0c0.3,1.3,0,3,0.3,4.4
		c0.3,1.7,1,2.7,2.4,3.7c0.7,0.3,1,0.7,0.3,1l0,0c-0.3,0-0.7-0.3-1-0.7c-0.7-0.3-1.3-1-2-1.7C260.9,55.4,260.9,55.1,260.6,54.7
		C260.9,55.1,260.9,54.7,260.6,54.7z"/>
	<path class="st1" d="M326.8,44.3c0.3,0.7,0.3,1,0.7,1.7c1-0.3,1.7-1,2.4-1.3c0.3,0,0.3,0,0.7,0c0,0.3,0,0.3,0,0.7
		c-0.3,1-1.3,1-2,1.3c-1.7,1-2.7,0.3-3-1.7c0-0.3,0-0.3,0-0.7s0.3-0.3,0.7-0.3l0,0C326.4,44,326.8,44.3,326.8,44.3z"/>
	<path class="st1" d="M341.5,22.5c0.7,0,1,0.3,1,1c0.3,1.3,0.7,2.7,0,4.4c0,0,0,0-0.3,0s-0.3,0-0.7,0c0,0,0,0-0.3,0l-0.3-0.3
		c0,0,0-0.3-0.3-0.3c0-0.3-0.3-0.3-0.7-0.3c-0.3,0-0.7-0.3-0.3-0.7c0-0.3,0-0.7,0.3-1c0.3-0.3,0-0.7,0.3-1c0-0.3,0.3-0.7,0.3-0.7
		C341.2,23.2,341.2,22.8,341.5,22.5z"/>
	<path class="st1" d="M260.3,47c0.3-2,0-4.4,1-6h0.3h0.3h0.3c0,2-0.3,4-1,6c0,0,0,0-0.3,0.3C260.9,47,260.9,47,260.3,47
		C260.6,47,260.6,47,260.3,47z"/>
	<path class="st1" d="M298.2,84c0,0.3,0,0.3-0.3,0.3c-1,1-0.7-0.3-1-0.7c1-1.7,0.3-4,1.3-5.7c0.3-0.3,0.7,0,1,0c0.3,1-0.3,2,0,3
		c0,0.3-0.7,0.7-0.3,1c0,0,0,0.3-0.3,0.3c-0.3,0.3-0.3,0.7,0,1l0,0C298.5,83.6,298.5,84,298.2,84z"/>
	<path class="st1" d="M274.7,38.6c0-1,1-1.3,1-2.4c0-0.7,0.7-1,1.3-1c0.7,0,1,0.7,0.7,1.3c0,0.7,0,1,0,1.7s-0.3,0.3-0.7,0.3
		c0-0.7-0.3-1.3-1.3-0.3C275.4,38.3,275,38.6,274.7,38.6L274.7,38.6z"/>
	<path class="st1" d="M298.9,21.5c0,0.3,0.3,0.3,0.3,0.7s0.3,0.7,0.7,1c0,0,0.3,0.3,0,0.7c-0.7,0.3-0.7,0-1-0.3c-0.3,0-0.3,0-0.7,0
		c-1-0.3-2-0.3-3-0.7c-0.3,0-0.7-0.3-0.7-0.7c0-0.3,0.3-0.3,0.3-0.3C296.2,21.2,297.5,21.2,298.9,21.5z"/>
	<path class="st1" d="M302.6,59.4c-0.3,1-0.3,2.4-0.7,3.4c-0.3,0-0.3,0.3-0.3,0.7l0,0c0,0.3,0,0.3,0,0.7l0,0c-0.3,0.7-0.3,1-1,0.3
		l0,0c0-0.3,0-0.3,0-0.7c0-1.7,0.3-3.4,0.3-4.7c0.3-0.7,0.3-1.3,1.3-0.7l0,0C302.2,58.8,302.6,59.1,302.6,59.4z"/>
	<path class="st1" d="M302.9,49.4c0.3,0,0.7,0,1,0c0,0.3,0,1,0,1.3s0,0.3,0,0.7c0,1,0,2-0.3,2.7c-0.3,0.7-0.7,0.7-1,0
		C301.9,52.7,302.2,51,302.9,49.4z"/>
	<path class="st1" d="M314,9.4c0.3,2-1,3.4-1.3,5c-0.3,0.3-0.7,0.3-1,0.3c0.3-1.7,0.7-3.4,1.3-5c0,0,0,0,0.3,0
		C313.3,9.4,313.7,9.4,314,9.4L314,9.4z"/>
	<path class="st1" d="M286.8,37.6L286.8,37.6L286.8,37.6c0-0.3,0-0.7,0-1c0-0.7,0-1.3,0.3-2c0-0.7,0.3-1.3,1.3-1.3
		c0.3,0,0.3,0,0.7,0.3c0.7,0.7,0,1.3-0.3,1.7l-0.3,0.3c0,0.3,0,0.3,0,0.7c0,0.3,0,0.3,0.3,0.7v0.3v0.3c0,0.3,0,0.3-0.3,0.7
		c-0.3,0-0.3,0.3-0.7,0C286.8,38.3,286.8,37.9,286.8,37.6z"/>
	<path class="st1" d="M287.5,42.6c-0.3,0-0.7,0-1,0c-0.7-1.3,0-2.7,0.3-3.7c0-0.3,0.3-0.3,0.3-0.7h0.3c0.3,0,0.3,0.3,0.3,0.7l0,0
		c0,0.3,0,0.7,0,1C287.8,40.6,287.5,41.6,287.5,42.6z"/>
	<path class="st1" d="M312.3,46.7c0,0.7,0,1.7,0,2.4c0,0.3,0,0.7-0.3,0.7s-0.7-0.3-1-0.7c-0.3-0.7-0.3-1.7,0-2.4
		c0-0.3,0-0.7,0.3-1.3h0.3c0.3,0,0.3,0.3,0.3,0.3C312,46,312.3,46.3,312.3,46.7z"/>
	<path class="st1" d="M270,27.2c-1.3-0.7-2,0.7-3,1c-0.7,0-0.3-0.7-0.3-1c2-2.4,2.7-2.4,4.7,0.3c0,0.3,0,0.3-0.3,0.3h-0.3
		C270.7,27.5,270.3,27.5,270,27.2z"/>
	<path class="st1" d="M264,58.4c0-0.3,0-0.7-0.3-1c2.4,0.3,3.7-1.7,5-3c0.3,0,0.3,0,0.3,0.3c0,0.3,0,0.7-0.3,0.7
		c-0.3,0.7-0.7,1-1.3,1.3c-0.7,0.3-1,1-1.7,1.3C265.3,58.4,264.6,58.8,264,58.4z"/>
	<path class="st1" d="M299.6,78.2c-0.3,0-0.7,0-1,0c-0.3-1.3,0.3-2.7,0.7-4c0.3-0.7,0.7-1,1-0.3c0.3,1-0.7,2-0.3,3
		C299.9,77.2,299.9,77.6,299.6,78.2C299.6,77.9,299.6,77.9,299.6,78.2z"/>
	<path class="st1" d="M311.6,14.8c0.3-0.3,0.7-0.3,1-0.3c0,1.7,0,3.4-0.7,5h-0.3v-0.3C311,17.5,311.6,16.1,311.6,14.8z"/>
	<path class="st1" d="M301.9,54.4c0.3,0,0.7,0,1,0c0,1.3,0,2.7-0.3,4c-0.7-0.3-1,0.3-1.3,0.7C301.6,57.8,301.6,56.1,301.9,54.4z"/>
	<path class="st1" d="M270,27.2c0.3,0.3,0.7,0.7,1,0.7c0.3,0,0.3,0,0.3,0.3c0,1.3,1.3,2.4,0,3.7H271C271,30.2,270.3,28.5,270,27.2z"
		/>
	<path class="st1" d="M337.5,31.9c0.7-1.7,0.7-3.7,2-5c0-0.3,0.3-0.3,0.7-0.3c0.3,0.3,0.3,0.7,0.3,1s0,0.3-0.3,0.7
		c0,0-0.3,0.3-0.7,0.3C338.8,29.6,338.8,30.9,337.5,31.9C337.8,32.2,337.8,32.2,337.5,31.9C337.5,32.2,337.5,31.9,337.5,31.9z"/>
	<path class="st1" d="M258.6,12.4c-0.3,0-0.3,0-0.7,0v-0.3l0,0c0.3-0.3,0.3-0.7,0.3-0.7l0,0c0-0.3,0.3-0.7,0.3-1c0-0.3,0-0.7,0-1
		c0.3-0.3,0.3-0.7,0-1c0-0.3,0-0.7,0.3-1c0.3-0.3,0.7-0.7,1-0.7c0.3,0.3,0.3,0.7,0,1c0,0.3,0,0.7-0.3,0.7c0,0,0,0.3-0.3,0.3
		c0,0.3,0,0.3,0,0.7l0,0c0,0.3,0,0.3,0,0.7l0,0c0,0.3-0.3,0.7-0.3,1v0.3C259.3,12.4,258.9,12.4,258.6,12.4z"/>
	<path class="st1" d="M313,9.7c0-1,0.3-2,1-2.7c0.3-0.3,0.7-0.7,1-0.3c0.3,0.3,0.7,0.7,0.3,1.3c-0.3,0.3-0.7,1-1,1.3H314
		C313.7,9.4,313.3,9.7,313,9.7L313,9.7z"/>
	<path class="st1" d="M300.2,73.9c-0.3-0.3-0.7,0-1,0.3c0-1.3-0.3-2.4,0.7-3.7c0.3-0.3,0.7-0.3,1,0l0,0c0,0.3,0,0.7,0,0.7
		C300.6,72.2,300.9,72.9,300.2,73.9z"/>
	<path class="st1" d="M297.2,84c0.3,0.3,0.3,1,1,0.7c-0.3,1.3,0,2.7-1.3,3.4c-0.7-1,0.3-1.7,0-2.7c0-0.3,0-0.7,0-0.7
		C296.9,84.3,297.2,84,297.2,84z"/>
	<path class="st1" d="M335.5,38.6c-1,1-1,2.4-2,3c-0.3,0.7-0.3,1-1,0.3c0.3-0.7,0.7-1.7,1-2.4c0-0.3,0-0.7,0.3-0.7
		c0,0,0.3-0.3,0.7-0.3s0.7-0.3,1-0.3C335.2,38.3,335.2,38.3,335.5,38.6C335.2,38.3,335.2,38.3,335.5,38.6z"/>
	<path class="st1" d="M253.9,53.1c-0.3,0-0.7,0.3-0.7,0.3c-0.3-1.3-0.3-2.4,0.3-3.7c0.3,0,0.3,0,0.7,0c0.7,0.7,0,1.3,0.3,1.7
		c0,0.3,0,0.7,0,0.7C254.2,52.7,253.9,52.7,253.9,53.1z"/>
	<path class="st1" d="M261.6,39.3V39c0-0.3,0-0.3,0.3-0.7c0-0.7,0-1.7,0.7-2.4h0.3h0.3c0.3,0,0.3,0,0.3,0.3c0,0.7,0,1.3-0.7,1.7
		c0,0.3,0,0.7-0.3,0.7l0,0l0,0c-0.3,0.3-0.3,0.7-0.3,0.7l0,0c0,0.3,0,0.3,0,0.7v0.3h-0.3c0,0-0.3,0-0.3-0.3V39.3L261.6,39.3
		C261.6,40,261.6,39.6,261.6,39.3z"/>
	<path class="st1" d="M300.6,70.5c-0.3,0-0.7,0-1,0c0-1,0-2,0.3-3.4c0-0.3,0.3-0.3,0.3-0.7c0,0,0.3-0.3,0.7-0.3s0.3,0.3,0.3,0.3v0.3
		c0,0.3,0,0.7,0,0.7C301.2,68.8,301.2,69.5,300.6,70.5z"/>
	<path class="st1" d="M277.4,56.4c-0.3-1-1-2-1-3c0.3-0.3,0.7-0.3,1,0c0.3,0.7,0.3,1.7,0.7,2.4c0.3,1,1.3,1,1.3,2.4
		c-0.3,0.3-0.3,0-0.7,0C278.1,57.8,277.4,57.1,277.4,56.4z"/>
	<path class="st1" d="M291.5,55.4L291.5,55.4c-0.3-0.7,0-1,0.3-1l0,0l0,0c0.3,0,0.3,0,0.7-0.3c0.3-0.3,0.7-0.7,1-0.7
		c0.7-0.7,0.7-2,2.4-1.7C294.5,53.4,293.8,55.1,291.5,55.4C291.5,56.1,291.5,55.7,291.5,55.4z"/>
	<path class="st1" d="M303.6,30.6c1-1.7,1.3-2,2.4-0.3c0,0.3,0,0.7,0,0.7l0,0c0,0.3,0,0.3,0,0.7l0,0c-0.3,0.3-0.7,0.7-0.7,0
		l-0.3-0.3C304.9,30.6,303.6,31.6,303.6,30.6z"/>
	<path class="st1" d="M253.2,62.8c0.3,0,0.7,0,1,0c0.3,1.3,0.7,2.4,1.7,3.4v0.3h-0.3c-0.7,0-1-0.3-1.7-0.7
		C253.2,64.8,253.2,63.8,253.2,62.8z"/>
	<path class="st1" d="M262.6,35.9c0-1.3,0.7-2.4,1.3-3.4c0.3-0.3,0.3-0.7,0.7-0.3c0,1,0,2-0.7,3c0,0.3-0.3,0.3-0.3,0.7
		C263.3,35.9,262.9,35.9,262.6,35.9L262.6,35.9z"/>
	<path class="st1" d="M305.9,34.9c0,1,0,1.7-0.3,2.7h-0.3h-0.3h-0.3c0-1,0-2.4,0.3-3.4c0.3-0.3,0.3-0.3,0.7,0l0,0
		C305.6,34.6,305.6,34.9,305.9,34.9z"/>
	<path class="st1" d="M330.5,45l-0.3-0.3c0-1,1-1.7,1.7-2.4c0.3,0,1-0.3,1,0.3V43c0,0.3-0.3,0.3-0.3,0.7c-0.3,0.3-0.3,0.3-0.7,0.7
		C331.1,44.7,330.8,45,330.5,45z"/>
	<path class="st1" d="M255.6,33.9c-0.3,0-0.7,0-1,0c0-1,0.3-2,0.7-3.4c0.3,0,0.7-0.3,1,0C255.9,31.6,255.9,32.9,255.6,33.9z"/>
	<path class="st1" d="M274,40c0.3-0.3,0.3-1,0.7-1.3c0,0,0,0,0.3,0s0.3,0,0.3,0c0.3,1-0.3,2-0.7,2.7c-0.3,0-0.3,0-0.7,0.3
		c0,0,0,0-0.3,0c0-0.3,0-0.3,0-0.7C273.7,40.6,273.7,40.3,274,40z"/>
	<path class="st1" d="M334.5,37.6c0.7-1,0.7-2,1.7-2.7h0.3c0.3,0,0.3,0,0.3,0.3c0,0.3,0,0.7-0.3,1c-0.3,0.3-0.7,0.7-0.7,1.3
		c0,0.3,0,0.3-0.3,0.3h-0.3C334.8,37.9,334.8,37.9,334.5,37.6C334.1,37.9,334.1,37.6,334.5,37.6z"/>
	<path class="st1" d="M300.9,36.9c-0.3-1,0-1.7,0.7-2.4c0.3,0,0.7,0.3,0.7,0.7c-0.3,0.7,0,1.7-0.7,2.4h-0.3L300.9,36.9
		C301.2,37.3,301.2,37.3,300.9,36.9C301.2,36.9,300.9,36.9,300.9,36.9z"/>
	<path class="st1" d="M338.2,32.6c0,0.7-0.3,1.3-0.7,2c-0.3,0-0.7,0.7-1,0.7h-0.3c0.3-1,0.7-2,1.3-3L338.2,32.6
		C337.8,32.2,337.8,32.2,338.2,32.6z"/>
	<path class="st1" d="M295.9,52.1c-1.3,0-1.3,1-2.4,1.7c0.3-1.7,2-2.4,2.4-3.7c0.3,0,0.7,0.3,0.7,0.7s-0.3,0.7-0.7,1
		C296.2,51.7,295.9,51.7,295.9,52.1z"/>
	<path class="st1" d="M270.3,34.9c0.3-0.7,0.3-1.3,0.7-2h0.3h0.3h0.3c0.3,0.7-0.3,1.7-0.3,2.4c0,0,0,0.3-0.3,0.3s-0.3,0-0.7,0
		C270.3,35.3,270.3,35.3,270.3,34.9z"/>
	<path class="st1" d="M261.3,56.4c1,0,1.3,1,2.4,1.7c0,0.3,0,0.3,0,0.3h-0.3C261.9,57.8,261.3,57.4,261.3,56.4z"/>
	<path class="st1" d="M266.6,27.2c0.3,0.3,0,0.7,0.3,1c-0.7,0.7-1.3,1.3-1.7,2c-0.3,0-0.7,0.3-0.7,0C265,28.9,266,28.2,266.6,27.2z"
		/>
	<path class="st1" d="M253.5,45c0.3,0,0.7,0,0.7,0c0.3,0.7,0,1.7-0.3,2.4c-0.3,0-0.7,0.3-0.7,0C253.2,46.7,253.5,46,253.5,45z"/>
	<path class="st1" d="M305.6,34.3c-0.3,0-0.3,0-0.7,0c0-1-0.3-1.7,0-2.7c0.3,0,0.7,0,0.7,0C306.3,32.6,305.9,33.2,305.6,34.3z"/>
	<path class="st1" d="M269,54.7L269,54.7c0-1,0.3-1.3,0.7-2c0.3-0.3,0.3-0.3,0.3-0.7l0,0c0.3-0.7,0.7-1,1-0.3l0,0c0,0.3,0,0.3,0,0.7
		c0,0.3-0.3,0.3-0.7,0.7c0,0.3,0,0.7-0.3,0.7c0,0.3-0.3,0.3-0.3,0.7C269.7,54.7,269.3,55.1,269,54.7z"/>
	<path class="st1" d="M296.9,48c0-1,0.3-1.7,1-2.4c0.3,0,0.3-0.3,0.7-0.3h0.3c0,0.7-0.3,1.7-0.7,2C297.5,47.7,297.5,48,296.9,48
		C297.2,48,296.9,48,296.9,48z"/>
	<path class="st1" d="M303.9,31.6c0,1-0.7,1.7-1,2.4c-0.3,0-0.7,0-0.3-0.3C302.6,32.9,302.9,32.2,303.9,31.6
		C303.2,31.2,303.6,31.2,303.9,31.6z"/>
	<path class="st1" d="M311.6,42.3c0.3,0.7,0.3,1,0.3,1.7c-0.3,0.3-0.7,0.3-1,0l0,0c0-0.3,0-0.7,0-0.7c-0.3-0.3-0.3-1,0-1.3
		c0-0.3,0.3-0.3,0.3-0.3C311.3,42,311.6,42,311.6,42.3z"/>
	<path class="st1" d="M310.6,35.6c0-1,0-1.7-0.3-2.7c0.3,0,0.7-0.7,1-0.3c0,1,0,1.7-0.3,2.4C311,35.6,311,35.9,310.6,35.6z"/>
	<path class="st1" d="M297.9,45.7c0-0.3,0.3-0.7,0.3-1.3c0-0.3,0-0.3,0-0.7c0.3-0.3,0.3-0.7,0.7-0.7s0.3,0,0.7,0.3
		c0,1-0.7,1.3-0.7,2h-0.3C298.5,45.7,298.2,45.7,297.9,45.7z"/>
	<path class="st1" d="M296.5,50.4c-0.3-0.3-0.3-0.3-0.7-0.7c0.3-0.7,0.7-1,1-1.7h0.3c0.3,0,0.3,0,0.3,0.3c0.3,0.7-0.3,1.3-0.3,2
		C296.9,50.4,296.9,50.7,296.5,50.4z"/>
	<path class="st1" d="M261.3,49c-0.3,0-0.7,0-1,0c-0.3-0.7,0-1.3,0-2h0.3h0.3h0.3C261.3,47.7,261.3,48.4,261.3,49z"/>
	<path class="st1" d="M342.2,29.6c-0.7,0-1,0.3-1.3,0.7c0-0.3,0-0.3,0-0.7c0-0.3,0-0.3,0-0.7c0-0.3,0-0.3,0.3-0.7
		c0-0.3,0.3-0.3,0.3-0.7c0,0,0,0,0.3-0.3h0.3h0.3h0.3h0.3C342.9,28.5,342.5,28.9,342.2,29.6z"/>
	<path class="st1" d="M276.4,48.4c-0.3-0.7,0-1.7,0.3-2.4h0.3h0.3h0.3c0.3,0.7,0.3,1.3,0,2.4c0,0,0,0-0.3,0
		C276.7,48.7,276.7,48.7,276.4,48.4L276.4,48.4z"/>
	<path class="st1" d="M274,43c0,0.7,0,1.3-0.7,2c-0.3-0.3-0.3,0-0.7,0c0-0.7,0-1.3,0.3-1.7C273.4,43,273.7,42.6,274,43z"/>
	<path class="st1" d="M253.5,47.4c0.3,0,0.7,0,0.7,0c0,0.3,0,0.3,0,0.7c0,0.3,0,0.7,0,1c0,0,0,0-0.3,0c-0.3,0-0.3,0-0.7,0
		C252.9,48.4,253.2,48,253.5,47.4z"/>
	<path class="st1" d="M272.7,48c-0.3,0.7-0.7,1.3-1,2.4h-0.3c0,0,0,0-0.3,0c0-0.3,0-0.7,0.3-1c0.3-0.3,0.3-0.3,0.3-0.7
		c0,0,0-0.3,0.3-0.3C272,48,272.4,47.7,272.7,48z"/>
	<path class="st1" d="M277.4,53.4c-0.3,0-0.7,0-1,0c-0.3-0.3-0.3-1,0-1.3c0-0.3,0.3-0.3,0.3-0.3c0.3,0,0.3,0.3,0.7,0.3
		C277.4,52.4,277.4,52.7,277.4,53.4z"/>
	<path class="st1" d="M311.6,38.6c0,0.3,0,1,0,1.3c-0.3,0-0.3,0-0.7,0c-0.3-0.7-0.3-1.7-0.3-2.4h0.3c0.3,0,0.3,0.3,0.3,0.3
		C311.3,38.3,311.6,38.6,311.6,38.6z"/>
	<path class="st1" d="M299.2,42.3c0-0.3,0.3-0.7,0.3-1l0.3-0.3c0.3,0,0.3,0,0.7,0c0,0.7-0.7,1.3-0.7,2C299.6,43,299.6,43,299.2,42.3
		L299.2,42.3z"/>
	<path class="st1" d="M276,50.7c0-0.7-0.3-1.7,0-2.4h0.3h0.3h0.3c0,0.7,0,1.3-0.3,1.7C276.7,50.4,276.4,50.7,276,50.7z"/>
	<path class="st1" d="M300.9,66.5l-0.3,0.3c-0.3,0-0.3,0-0.3-0.3v-0.3c0-0.3,0.3-0.3,0-0.7c0-0.3,0-0.7,0-0.7c0.3,0,0.7,0,1-0.3
		c0.3,0.7-0.3,1.3-0.3,1.7C301.6,66.5,301.2,66.5,300.9,66.5z"/>
	<path class="st1" d="M279.4,58.1c-0.3-0.7-1.3-1.3-1.3-2.4c0.7,0.7,1,1.3,2,1.7c0.3,0.3,0.3,0.3,0,0.7
		C279.7,58.1,279.4,58.1,279.4,58.1z"/>
	<path class="st1" d="M303.9,31.6c-0.3,0-0.3,0-0.7,0c0-0.7,0.3-0.7,0.7-1c0.3,0.3,1.7-0.7,1.3,0.7
		C304.6,31.2,304.3,31.6,303.9,31.6z"/>
	<path class="st1" d="M310.6,35.6c0.3,0,0.3-0.3,0.7-0.3c0.7,0.7,0.3,1,0.3,1.7c-0.3,0.3-0.7,0.3-0.7,0
		C310.6,36.6,310.6,36.3,310.6,35.6z"/>
	<path class="st1" d="M271,51.7c-0.3,0-0.7,0-1,0.3c-0.3-1,0.7-1,1-1.7h0.3c0.3,0,0.3,0,0.3,0.3C271.7,51,271.3,51.4,271,51.7z"/>
	<path class="st1" d="M369.7,59.4c0.7,0.3,1.3,1,1.7,1.3c0.3,0,0.3,0.3,0.7,0.3c0,0,0.3,0.3,0,0.7C371.1,61.5,370.1,60.8,369.7,59.4
		z"/>
	<path class="st1" d="M300.2,39.6c0.3-0.7,0.3-1.7,1-2c0.3,0,0.3,0,0.7,0.3c0,0.3-0.3,1-0.7,1.3C300.9,39.6,300.6,40,300.2,39.6z"/>
	<path class="st1" d="M294.5,21.5c0.3,0.3,0.7,0.7,0.7,1c-0.7,0-1.3,0-1.7-0.3c-0.7-0.7-0.3-1,0.3-1
		C294.2,21.2,294.5,21.2,294.5,21.5z"/>
	<path class="st1" d="M264.6,32.2c-0.3,0-0.7,0.3-0.7,0.3c0-0.7,0-1.3,0.7-2c0.3,0,0.3,0,0.3,0.3C265,31.6,265,31.9,264.6,32.2z"/>
	<path class="st1" d="M270.3,34.9l0.3,0.3h0.3l0.3-0.3h0.3c0,0.7,0,1.3-0.7,2C270,36.3,270,35.6,270.3,34.9z"/>
	<path class="st1" d="M311,30.2c-0.7-0.7-0.3-1-0.3-1.7c0.3,0,0.7,0,0.7,0.3C311.6,29.2,311.6,29.9,311,30.2
		C311.3,30.6,311,30.6,311,30.2z"/>
	<path class="st1" d="M326.4,25.2c1,0.3,1.7,0.7,1.7,1.7C327.4,26.2,326.8,25.9,326.4,25.2z"/>
	<path class="st1" d="M310.6,26.2c-0.3-0.3,0-1,0-1.3c0.3,0,0.3,0,0.7,0h0.3c0.3,0.3,0,1,0,1.3C311.3,26.5,311,26.5,310.6,26.2z"/>
	<path class="st1" d="M332.5,43c-0.3,0-0.7-0.3-1-0.3c0.3-0.3,0.3-0.3,0.7-0.7c0.3,0,0.7-0.3,1-0.3C333.1,42,332.8,42.6,332.5,43z"
		/>
	<path class="st1" d="M367.7,54.7c0.3,0.7,0.3,1,0.3,1.7C367.4,56.1,367.1,55.7,367.7,54.7z"/>
	<path class="st1" d="M276.7,38.6c0.3,0,0.7,0,0.7-0.3c0,0.7,0,1-0.3,1.7c-0.3,0-0.3,0-0.7,0C276.7,39.6,276.7,39.3,276.7,38.6z"/>
	<path class="st1" d="M279.7,58.1c0-0.3,0-0.3,0-0.7c0.3,0,1-0.7,1.3,0C281.1,57.8,280.4,58.1,279.7,58.1z"/>
	<path class="st1" d="M300.2,39.6c0.3,0,0.7-0.3,0.7-0.3c0.3,0.7-0.3,1-0.3,1.7c0,0-0.3,0-0.3,0.3c-0.3-0.3-0.3-0.7-0.3-1
		C299.9,40,299.9,40,300.2,39.6z"/>
	<path class="st1" d="M277.4,43c0.3,0.7,0,1.3-0.3,2h-0.3l-0.3-0.3c-0.3-0.3,0-1,0-1.3C277.1,43,277.1,43,277.4,43z"/>
	<path class="st1" d="M290.8,54.7c-1,0-1.7-0.7-1.7-1.7C289.5,53.7,290.2,54.4,290.8,54.7z"/>
	<path class="st1" d="M253.5,40c0.3,0.7,0.3,1.3,0,2C252.5,41.3,253.2,40.6,253.5,40z"/>
	<path class="st1" d="M277.4,40.6c0,0.3,0.3,1,0,1.3h-0.3h-0.3c-0.3-0.7-0.3-1,0-1.7h0.3C277.1,40.6,277.1,40.6,277.4,40.6
		L277.4,40.6z"/>
	<path class="st1" d="M277.1,44.7c0,0.3,0,1,0,1.3c0,0,0,0-0.3,0l0,0h-0.3c0-0.3-0.3-1,0-1.3H277.1L277.1,44.7
		C277.1,45,277.1,45,277.1,44.7z"/>
	<path class="st1" d="M272,47c0-0.3,0-1,0.3-1.3c0-0.3,0.3-0.7,0.7-0.7c0,0.7-0.3,1.3-0.3,1.7C272.7,47.4,272.4,47.4,272,47z"/>
	<path class="st1" d="M311,44c0.3,0,0.7,0,1,0c0.3,0.3,0.3,1,0,1.7l0,0h-0.3h-0.3H311C311,45,311,44.7,311,44z"/>
	<path class="st1" d="M253.9,65.8c0.7-0.3,1,0.3,1.7,0.7C254.6,66.8,253.9,66.8,253.9,65.8z"/>
	<path class="st1" d="M276,50.7c0.3-0.3,0.7-0.3,0.7-0.7c0,0.3,0.3,0.3,0.3,0.7s0,0.7-0.3,0.7s-0.3,0.3-0.7,0.3
		C276,51.7,276,51,276,50.7z"/>
	<path class="st1" d="M274,43c-0.3,0-0.7,0-0.7,0c0.3-0.7,0.3-1,0.7-1.7h0.3c0.3,0,0.3,0,0.3,0.3C274.4,42.3,274,42.6,274,43z"/>
	<path class="st1" d="M340.5,26.9c-0.3,0-0.7,0-0.7,0c0-0.3,0-1,0.3-1c0.3,0.3,0.7,0,1,0c0.3,0,0.3,0.3,0.3,0.3c0,0.3,0,0.3-0.3,0.7
		C340.9,26.9,340.5,27.2,340.5,26.9z"/>
	<path class="st1" d="M272,47c0.3,0,0.3,0,0.7,0c0,0.3,0,0.7-0.3,1c-0.3,0-0.7,0-1,0C271.7,47.7,272,47.4,272,47z"/>
	<path class="st1" d="M266,58.4c0.3-0.7,1-1.3,1.7-1.3C267.3,57.8,266.6,58.1,266,58.4z"/>
	<path class="st1" d="M300.2,22.8c0.7,0,1,0,1,0.7c0,0.3-0.7,0.3-1,0C300.2,23.5,300.2,23.2,300.2,22.8z"/>
	<path class="st1" d="M302.2,33.6l0.3,0.3c0,0.3,0,1-0.3,1.3c-0.3-0.3-0.3-0.3-0.7-0.7C301.9,34.3,301.6,33.9,302.2,33.6z"/>
	<path class="st1" d="M277.4,56.4c0.3,0.3,1,1,1.3,1.3C277.7,57.8,277.4,57.4,277.4,56.4z"/>
	<path class="st1" d="M311.3,30.2c0.3,0.3,0.3,0.7,0,1H311h-0.3h-0.3c-0.3-0.3,0-0.7,0-1C311,30.2,311.3,30.2,311.3,30.2z"/>
	<path class="st1" d="M311.3,31.6c0,0.3,0,0.7-0.3,1c-0.3,0-0.3,0-0.3-0.3c0-0.3,0-0.7,0-0.7H311.3C311,31.2,311.3,31.2,311.3,31.6
		L311.3,31.6z"/>
	<path class="st1" d="M310.6,32.2l0.3,0.3l0.3,0.3c-0.3,0.3-0.7,0.3-1,0.3C310.6,32.9,310.6,32.6,310.6,32.2z"/>
	<path class="st1" d="M299.6,22.8c-0.3-0.3-0.7-0.7-0.3-1c0.3,0,0.7,0.3,1,0.3l-0.3,0.3C299.9,22.8,299.9,23.2,299.6,22.8
		C299.6,23.2,299.6,23.2,299.6,22.8z"/>
	<path class="st1" d="M311.6,41c0.3,0.3,0,0.3,0,0.7c0,0.3,0,0.3-0.3,0.3H311c-0.3,0-0.3,0-0.3,0.3c0-0.3-0.3-0.7,0-1.3
		C311,40.6,311.3,40.6,311.6,41C311.6,40.6,311.6,40.6,311.6,41z"/>
	<path class="st1" d="M310.6,37.3c0.3,0,0.7,0,0.7,0c0,0.3,0,0.7,0,0.7H311h-0.3h-0.3C310.3,37.6,310.6,37.3,310.6,37.3z"/>
	<path class="st1" d="M299.9,40.3c0,0.3,0.3,0.7,0.3,1c-0.3,0.3-0.3,0-0.7,0C299.6,40.6,299.6,40.3,299.9,40.3z"/>
	<path class="st1" d="M253.2,49c0.3,0,0.3,0,0.7,0c0,0.3,0,0.3,0,0.7c-0.3,0-0.3,0-0.7,0C253.2,49.7,253.2,49.4,253.2,49z"/>
	<path class="st1" d="M271.7,31.6c0.3,0.3,0.3,0.7,0.3,1h-0.3h-0.3H271C270.7,32.2,271,31.9,271.7,31.6
		C271.3,31.6,271.3,31.6,271.7,31.6z"/>
	<path class="st1" d="M276.7,40c0.3,0,0.3,0,0.7,0c0,0.3,0.3,0.3,0,0.7h-0.3h-0.3h-0.3C276.4,40.3,276.4,40.3,276.7,40z"/>
	<path class="st1" d="M335.5,37.9c0-0.7,0.3-1,1-1.3c-0.3,0.3-0.3,0.7-0.7,1.3C335.8,37.9,335.5,37.9,335.5,37.9z"/>
	<path class="st1" d="M273.4,45c-0.3,0.3-0.3,0.3-0.7,0.7c-0.3-0.3,0-0.7,0-0.7C273,44.7,273.4,44.7,273.4,45L273.4,45L273.4,45z"/>
	<path class="st1" d="M311.3,28.9c-0.3,0-0.3-0.3-0.7-0.3c0-0.3,0-0.3,0-0.7l0,0h0.3l0,0C311.3,28.2,311.3,28.5,311.3,28.9z"/>
	<path class="st1" d="M311.6,27.2c0,0.3,0,0.3,0,0.7h-0.3H311h-0.3c-0.3-0.3,0-0.7,0-1C311,26.5,311.3,26.5,311.6,27.2z"/>
	<path class="st1" d="M336.2,34.9c0.3-0.3,0.3-1,1-0.7c-0.3,0.3-0.3,0.7-0.7,1C336.5,35.3,336.5,35.3,336.2,34.9z"/>
	<path class="st1" d="M311.6,27.2c-0.3,0-0.7-0.3-0.7-0.3c0-0.3,0-0.3,0-0.7c0.3,0,0.7,0,0.7,0C311.6,26.5,311.6,26.9,311.6,27.2z"
		/>
	<path class="st1" d="M370.7,58.8c-0.3-0.3-1-0.7-0.7-1.3C370.4,57.8,370.7,58.4,370.7,58.8z"/>
	<path class="st1" d="M372.4,61.5c0.7,0,0.7,0.3,0.7,0.7c-0.3,0.3-0.7,0-0.7-0.3C372.4,61.8,372.4,61.8,372.4,61.5
		C372.1,61.5,372.4,61.5,372.4,61.5z"/>
	<path class="st1" d="M341.2,29.2c0,0.3-0.3,0.3-0.3,0.7c-0.3-0.3-0.7-0.7-1-1l0.3-0.3C340.9,28.2,341.2,28.5,341.2,29.2z"/>
	<path class="st1" d="M296.5,50.4c0,0,0.3,0,0.3-0.3c0.3,0.7-0.3,1-0.7,1.3C295.9,51,296.5,50.7,296.5,50.4z"/>
	<path class="st1" d="M310.6,40c0.3,0,0.3,0,0.7,0c0,0.3,0.3,0.3,0,0.7H311L310.6,40L310.6,40C310.6,40.3,310.6,40.3,310.6,40z"/>
	<path class="st1" d="M258.6,14.1c-0.3-0.3,0-0.7,0.3-1C259.3,13.4,258.9,13.8,258.6,14.1z"/>
	<path class="st1" d="M334.5,37.6L334.5,37.6c0.3,0.7,0,1-0.3,1h-0.3c-0.3,0-0.3,0-0.3-0.3C333.8,37.9,334.1,37.6,334.5,37.6z"/>
	<path class="st1" d="M301.6,37.9c-0.3,0-0.3-0.3-0.7-0.3c0-0.3,0-0.3,0-0.7h0.3l0,0C301.2,37.3,301.6,37.6,301.6,37.9
		C301.6,37.6,301.6,37.9,301.6,37.9L301.6,37.9z"/>
	<path class="st1" d="M257.2,14.8c0.3,0.3,0,0.7-0.3,1C256.6,15.4,256.9,15.1,257.2,14.8z"/>
	<path class="st1" d="M333.5,38.3c0,0,0,0.3,0.3,0.3c-0.3,0.3-0.3,0.7-0.7,1C332.8,39,333.1,38.6,333.5,38.3z"/>
	<path class="st1" d="M342.9,41.3c-0.7,0.3-1-0.3-1-0.7C342.5,40.6,342.9,41,342.9,41.3z"/>
	<path class="st1" d="M312.3,46.7c-0.3-0.3-0.3-0.3-0.7-0.7v-0.3h0.3c0,0,0,0,0.3,0C312.3,46,312.3,46,312.3,46.7z"/>
	<path class="st1" d="M258.6,10.4c0,0.3,0,0.7-0.3,1C258.2,11.1,258.2,10.7,258.6,10.4z"/>
	<path class="st1" d="M304.3,37.9c0.3,0.3,0,1-0.3,1.3C303.9,38.6,303.9,38.3,304.3,37.9z"/>
	<path class="st1" d="M291.8,54.7c-0.3,0.3-0.3,0.3-0.7,0.7l-0.3-0.3C291.2,54.7,291.5,54.4,291.8,54.7z"/>
	<path class="st1" d="M275.4,38.6C275,38.6,275,38.6,275.4,38.6c0-0.3,0-0.3,0.3-0.3L275.4,38.6z"/>
	<path class="st1" d="M335.5,37.9l0.3-0.3c0.3,0.3,0,0.7-0.3,1l0,0l0,0C335.2,38.3,335.5,37.9,335.5,37.9z"/>
	<path class="st1" d="M259.3,11.8c0-0.3,0-0.7,0.3-1C259.9,11.4,259.6,11.4,259.3,11.8z"/>
	<path class="st1" d="M341.9,32.2c0-0.3,0-0.7,0.3-1C342.5,31.6,342.2,31.9,341.9,32.2z"/>
	<path class="st1" d="M372.4,61.5c0,0.3-0.3,0.3-0.3,0.3c-0.3-0.3-0.3-0.3-0.7-0.7c0,0,0-0.3,0.3-0.3S372.4,61.1,372.4,61.5z"/>
	<path class="st1" d="M277.1,51.4c0-0.3,0.3-0.3,0.3-0.7c0.3,0.3,0.3,0.7,0,1L277.1,51.4L277.1,51.4z"/>
	<path class="st1" d="M298.9,82.3c-0.3-0.3,0-0.7,0.3-1C299.6,81.6,299.2,81.9,298.9,82.3z"/>
	<path class="st1" d="M341.5,22.5c-0.3,0.3-0.3,0.3-0.7,0.7C340.9,22.8,340.9,22.5,341.5,22.5z"/>
	<path class="st1" d="M269,54.7c0.3,0,0.3-0.3,0.7-0.3c0,0.7-0.3,0.7-0.7,1C269,55.4,269,55.1,269,54.7z"/>
	<path class="st1" d="M262.9,35.9c0.3-0.3,0.3-0.3,0.7-0.7c0,0.3,0,0.7-0.3,1C263.6,35.9,263.3,35.9,262.9,35.9
		C263.3,35.9,263.3,35.9,262.9,35.9z"/>
	<path class="st1" d="M297.9,45.7c0.3,0,0.3,0,0.7,0C298.5,45.7,298.2,46,297.9,45.7L297.9,45.7z"/>
	<path class="st1" d="M255.9,30.6c-0.3,0-0.7,0-1,0v-0.3C255.6,30.2,255.9,30.2,255.9,30.6C256.2,30.2,256.2,30.6,255.9,30.6z"/>
	<path class="st1" d="M371.4,60.1c-0.3-0.3-0.7-0.7-0.7-1C371.1,59.1,371.4,59.4,371.4,60.1z"/>
	<path class="st1" d="M287.8,38.6c0-0.3-0.3-0.3-0.3-0.7c0.3-0.3,0.3-0.3,0.7-0.7C288.1,37.9,287.8,38.3,287.8,38.6z"/>
	<path class="st1" d="M297.5,48.4C297.5,48.4,297.2,48.4,297.5,48.4c-0.3-0.7,0-1,0.7-0.7C297.9,48,297.5,48,297.5,48.4z"/>
	<path class="st1" d="M330.5,45c0.3-0.3,0.7-0.3,1-0.7c0.3,0.7-0.3,0.7-0.7,1C330.5,45.3,330.5,45.3,330.5,45z"/>
	<path class="st1" d="M277.4,43c-0.3,0.3-0.3,0.3-0.7,0c0-0.3,0-0.3,0-0.7h0.3C277.1,42.3,277.1,42.3,277.4,43
		C277.4,42.6,277.4,42.6,277.4,43z"/>
	<path class="st1" d="M265,31.2l-0.3-0.3c0-0.3,0-0.7,0-0.7c0.3,0,0.3,0,0.7,0C265.3,30.6,265,30.9,265,31.2z"/>
	<path class="st1" d="M299.6,22.8L299.6,22.8h0.7c0,0.3,0.3,0.7,0,1h-0.3l0,0C299.9,23.5,299.6,23.2,299.6,22.8z"/>
	<path class="st1" d="M262.9,58.1l0.3-0.3c0.3,0.3,0.3,0.3,0.7,0.7C263.6,58.8,263.3,58.4,262.9,58.1z"/>
	<path class="st1" d="M300.9,66.5l0.3-0.3C301.6,66.5,301.6,66.5,300.9,66.5C301.2,66.8,301.2,66.5,300.9,66.5z"/>
	<path class="st1" d="M274.4,41.6L274.4,41.6L274.4,41.6c0-0.3,0-0.3,0.3-0.3C274.7,41.6,274.4,41.6,274.4,41.6z"/>
	<path class="st1" d="M300.6,65.5c0.3,0.3,0,0.7,0,0.7C300.6,65.8,300.6,65.8,300.6,65.5z"/>
	<path class="st1" d="M290.5,56.1c0.3,0,0.3,0,0.7,0C290.8,56.1,290.8,56.1,290.5,56.1z"/>
	<path class="st1" d="M300.6,64.1c0,0.3,0,0.3,0,0.7C300.6,64.5,300.6,64.1,300.6,64.1z"/>
	<path class="st1" d="M277.4,42.6L277.4,42.6C277.1,42.3,277.1,42.3,277.4,42.6c0-0.3,0-0.3,0.3-0.3
		C277.4,42.3,277.4,42.3,277.4,42.6z"/>
	<path class="st1" d="M291.5,55.4C291.8,55.7,291.8,55.7,291.5,55.4c0,0.3,0,0.3-0.3,0.3C291.5,55.7,291.5,55.7,291.5,55.4z"/>
	<path class="st1" d="M300.9,67.8c0-0.3,0-0.7,0-0.7C301.2,67.5,301.2,67.8,300.9,67.8z"/>
	<path class="st1" d="M300.2,66.5C300.6,66.5,300.6,66.8,300.2,66.5c0,0.3,0,0.7-0.3,0.7C300.2,67.2,300.2,66.8,300.2,66.5z"/>
	<path class="st1" d="M274,40c0,0.3,0,0.7-0.3,1C273.7,40.6,273.7,40.3,274,40z"/>
	<path class="st1" d="M259.9,9.1c0-0.3,0-0.7,0.3-0.7C260.3,8.4,260.3,8.7,259.9,9.1z"/>
	<path class="st1" d="M287.8,36.3c-0.3-0.3-0.3-0.3,0-0.7C287.8,35.9,287.8,36.3,287.8,36.3z"/>
	<path class="st1" d="M287.8,37.3v-0.3C288.1,36.9,288.1,37.3,287.8,37.3z"/>
	<path class="st1" d="M259.6,10.7c-0.3-0.3,0-0.3,0-0.7C259.9,10.4,259.9,10.4,259.6,10.7z"/>
	<path class="st1" d="M259.9,10.1c-0.3-0.3,0-0.7,0-0.7S259.9,9.7,259.9,10.1z"/>
	<path class="st1" d="M258.9,8.4c0.3,0.3,0,0.7,0,1C258.6,9.1,258.9,8.7,258.9,8.4z"/>
	<path class="st1" d="M303.6,51.7c0-0.3,0-0.7,0-0.7S303.9,51.4,303.6,51.7z"/>
	<path class="st1" d="M271.3,28.2l-0.3-0.3c0,0,0-0.3,0.3-0.3C271.7,27.5,271.7,27.9,271.3,28.2z"/>
	<path class="st1" d="M302.6,59.4c-0.3-0.3-0.3-0.7,0-1C302.6,58.8,302.6,59.1,302.6,59.4z"/>
	<path class="st1" d="M301.6,64.1c0-0.3,0-0.3,0-0.7C301.9,63.8,301.9,64.1,301.6,64.1z"/>
	<path class="st1" d="M292.5,54.4c0,0.3-0.3,0.3-0.7,0.3C292.2,54.4,292.5,54.1,292.5,54.4z"/>
	<path class="st1" d="M257.9,20.5c0-0.3,0-0.7,0-1C258.2,19.8,258.2,20.1,257.9,20.5z"/>
	<path class="st1" d="M301.6,63.5c-0.3-0.3,0-0.7,0.3-1C301.9,63.1,301.9,63.1,301.6,63.5z"/>
	<path class="st1" d="M257.9,19.1c-0.3-0.3,0-0.7,0.3-1C258.2,18.5,258.2,19.1,257.9,19.1z"/>
	<path class="st1" d="M286.5,36.9c0,0.3,0,0.3,0,0.7C286.5,37.3,286.5,36.9,286.5,36.9z"/>
	<path class="st1" d="M287.1,38.3c0,0.3-0.3,0.3-0.3,0.7c0-0.3,0-0.7,0-1C286.8,37.9,287.1,37.9,287.1,38.3z"/>
	<path class="st1" d="M287.8,40c0-0.3,0-0.7,0-1C288.1,39.3,288.1,39.6,287.8,40z"/>
	<path class="st1" d="M258.6,12.4c0.3,0,0.3-0.3,0.7-0.3c0,0.3,0,0.7,0,0.7L258.6,12.4L258.6,12.4z"/>
	<path class="st1" d="M258.2,11.4c0,0.3,0,0.7-0.3,0.7C257.9,12.1,258.2,11.8,258.2,11.4z"/>
	<path class="st1" d="M254.2,52.4c-0.3-0.3-0.3-0.3,0-0.7C254.6,51.7,254.6,52.1,254.2,52.4z"/>
	<path class="st1" d="M260.6,54.7c0.3,0,0.3,0.3,0,0.7C260.6,55.1,260.6,54.7,260.6,54.7z"/>
	<path class="st1" d="M254.2,49c0-0.3-0.3-0.7,0-1C254.6,48.4,254.6,48.7,254.2,49z"/>
	<path class="st1" d="M252.9,53.4c0.3,0,0.3,0.3,0,0.3c0,0,0,0-0.3,0C252.9,53.7,252.9,53.4,252.9,53.4z"/>
	<path class="st1" d="M254.6,44c0-0.3,0-0.7,0.3-0.7C254.9,43.7,254.9,44,254.6,44z"/>
	<path class="st1" d="M253.9,42.6c0.3,0.3,0.3,0.7,0,1C253.5,43,253.5,43,253.9,42.6z"/>
	<path class="st1" d="M296.9,84.6c0,0.3,0,0.7,0,0.7C296.5,85,296.5,84.6,296.9,84.6z"/>
	<path class="st1" d="M254.9,42.6c-0.3-0.3-0.3-0.7,0-0.7h0.3L254.9,42.6C254.9,42.3,254.9,42.3,254.9,42.6z"/>
	<path class="st1" d="M254.9,42.3C254.9,42,254.9,42,254.9,42.3c-0.3-0.3,0-0.7,0-0.7C255.2,41.6,255.2,42,254.9,42.3z"/>
	<path class="st1" d="M253.5,43.7c0,0.3,0,0.3,0,0.7C253.5,44,253.5,44,253.5,43.7z"/>
	<path class="st1" d="M252.5,43L252.5,43L252.5,43L252.5,43L252.5,43z"/>
	<path class="st1" d="M260.3,49c0.3,0.3,0,0.7,0,1C260.3,49.7,260.3,49.4,260.3,49z"/>
	<path class="st1" d="M262.6,40.3c0-0.3,0-0.3,0-0.7C262.6,40,262.6,40.3,262.6,40.3z"/>
	<path class="st1" d="M262.6,39.6c0-0.3,0-0.7,0.3-0.7C262.9,39.3,262.9,39.3,262.6,39.6z"/>
	<path class="st1" d="M261.9,38.3c0,0.3,0,0.7-0.3,0.7C261.9,38.6,261.9,38.6,261.9,38.3z"/>
	<path class="st1" d="M262.9,38.6c0-0.3,0-0.7,0.3-0.7C262.9,37.9,262.9,38.3,262.9,38.6z"/>
	<path class="st1" d="M300.6,71.2c0-0.3,0-0.7,0-0.7C300.9,70.9,300.9,70.9,300.6,71.2z"/>
	<path class="st1" d="M277.1,45L277.1,45c-0.3-0.3-0.3-0.3-0.3-0.7C276.7,44.7,276.7,44.7,277.1,45z"/>
	<path class="st1" d="M256.6,28.5c0-0.3,0-0.7,0-1C256.6,27.9,256.9,28.2,256.6,28.5z"/>
	<path class="st1" d="M270,52.1c0,0.3,0,0.7-0.3,0.7C269.7,52.4,269.7,52.4,270,52.1z"/>
	<path class="st1" d="M255.6,38.3c-0.3-0.3-0.3-0.7,0-1C255.6,37.6,255.6,37.9,255.6,38.3z"/>
	<path class="st1" d="M271,52.4c0-0.3,0-0.7,0-0.7C271.3,52.1,271,52.1,271,52.4z"/>
	<path class="st1" d="M255.6,36.9c-0.3-0.3-0.3-0.7,0-1C255.6,36.3,255.6,36.6,255.6,36.9z"/>
	<path class="st1" d="M253.5,39c0.3,0.3,0.3,0.7,0,1C253.2,39.6,253.2,39.3,253.5,39z"/>
	<path class="st1" d="M298.2,84c0-0.3,0-0.3,0.3-0.7C298.5,83.6,298.5,84,298.2,84z"/>
	<path class="st1" d="M298.5,83.6c0-0.3,0-0.7,0-1C298.9,82.9,298.9,83.3,298.5,83.6z"/>
	<path class="st1" d="M270.3,53.7c0-0.3,0-0.7,0.3-0.7C270.3,53.4,270.3,53.7,270.3,53.7z"/>
	<path class="st1" d="M261.6,40l0.3,0.3c0,0,0,0.3-0.3,0.3h-0.3C261.6,40.6,261.6,40.3,261.6,40z"/>
	<path class="st1" d="M261.6,39.3c0,0.3,0,0.3,0,0.7C261.3,39.6,261.3,39.6,261.6,39.3z"/>
	<path class="st1" d="M299.9,77.9c0-0.3,0-0.7,0-1C300.2,77.2,299.9,77.6,299.9,77.9z"/>
	<path class="st1" d="M271.3,48.4c0,0.3,0,0.7-0.3,0.7C271,48.7,271,48.7,271.3,48.4z"/>
	<path class="st1" d="M271.3,50.7L271.3,50.7l-0.3-0.3C271.3,50,271.3,50,271.3,50.7C271.7,50.4,271.7,50.4,271.3,50.7z"/>
	<path class="st1" d="M340.5,24.2c0,0.3,0,0.7-0.3,1C340.2,24.5,340.2,24.5,340.5,24.2z"/>
	<path class="st1" d="M368.7,52.4c-0.3-0.3-0.3-0.3,0-0.7C368.7,51.7,368.7,52.1,368.7,52.4z"/>
	<path class="st1" d="M354,36.6c-0.3,0.3-0.3,0.3-0.7,0C353.3,36.6,353.6,36.6,354,36.6z"/>
	<path class="st1" d="M364.7,41.3c-0.3-0.3-0.3-0.7-0.3-1C364.7,40.6,364.7,41,364.7,41.3z"/>
	<path class="st1" d="M356.6,35.9c-0.3,0.3-0.7,0.3-0.7,0C356.3,35.9,356.6,35.9,356.6,35.9z"/>
	<path class="st1" d="M340.9,32.6c0,0.3,0,0.3,0,0.7C340.9,32.9,340.9,32.6,340.9,32.6z"/>
	<path class="st1" d="M340.9,31.9c0,0.3,0,0.3,0,0.7C340.5,32.2,340.5,31.9,340.9,31.9z"/>
	<path class="st1" d="M341.9,32.6c0-0.3,0-0.3,0-0.7C341.9,32.2,341.9,32.6,341.9,32.6z"/>
	<path class="st1" d="M340.9,31.2c0,0.3,0,0.3,0,0.7C340.5,31.6,340.5,31.2,340.9,31.2z"/>
	<path class="st1" d="M340.9,30.2c0,0.3,0,0.3,0,0.7C340.5,30.9,340.5,30.6,340.9,30.2z"/>
	<path class="st1" d="M346.2,40.6c-0.3,0.3-0.7,0.3-1,0.3C345.6,40.6,345.9,40.6,346.2,40.6z"/>
	<path class="st1" d="M338.2,32.6l-0.3-0.3h0.3C338.2,32.2,338.2,32.2,338.2,32.6z"/>
	<path class="st1" d="M342.2,30.9c0-0.3,0-0.3,0-0.7C342.2,30.6,342.2,30.9,342.2,30.9z"/>
	<path class="st1" d="M342.2,30.2c0-0.3,0-0.3,0-0.7C342.2,29.9,342.2,29.9,342.2,30.2z"/>
	<path class="st1" d="M311.3,41.6l0.3-0.3c0,0.3,0,0.7,0,1C311.6,42,311.3,42,311.3,41.6z"/>
	<path class="st1" d="M311,40.6l0.3,0.3H311C310.6,40.6,310.6,40.6,311,40.6z"/>
	<path class="st1" d="M305.9,34.9c-0.3-0.3-0.3-0.3,0-0.7C305.9,34.6,305.9,34.6,305.9,34.9z"/>
	<path class="st1" d="M311,43.3c0.3,0.3,0.3,0.3,0,0.7C311,43.7,311,43.7,311,43.3z"/>
	<path class="st1" d="M305.9,31.6c-0.3-0.3-0.3-0.3,0-0.7C306.3,31.2,306.3,31.6,305.9,31.6z"/>
	<path class="st1" d="M305.9,30.9c-0.3-0.3-0.3-0.3,0-0.7C306.3,30.6,306.3,30.9,305.9,30.9z"/>
	<path class="st1" d="M298.2,22.8c0.3,0,0.7,0,0.7,0C298.5,23.2,298.2,23.2,298.2,22.8z"/>
	<path class="st1" d="M311.6,38.6l-0.3-0.3c0-0.3,0-0.3,0-0.3h0.3C311.6,38.3,311.6,38.3,311.6,38.6z"/>
	<path class="st1" d="M294.5,21.5L294.5,21.5C294.5,21.2,294.9,21.2,294.5,21.5L294.5,21.5z"/>
	<path class="st1" d="M299.6,42.3l0.3,0.3c0,0,0,0.3-0.3,0.3s-0.3-0.3-0.7-0.3l0,0C299.2,42.6,299.2,42.6,299.6,42.3z"/>
	<path class="st1" d="M299.6,42.3l-0.3,0.3C298.9,42.6,298.9,42.3,299.6,42.3C299.2,42.3,299.2,42.3,299.6,42.3z"/>
	<path class="st1" d="M298.5,43.7c0,0.3,0,0.3,0,0.7C298.2,44,298.2,44,298.5,43.7z"/>
	<path class="st1" d="M303.6,42.3c0,0.3,0,0.7,0,0.7C303.2,42.6,303.2,42.3,303.6,42.3z"/>
	<path class="st1" d="M328.4,34.6c0-0.3,0-0.7,0-1C328.8,33.9,328.8,34.3,328.4,34.6z"/>
	<path class="st1" d="M328.1,32.2c0,0.3,0,0.3,0,0.7C328.1,32.6,328.1,32.2,328.1,32.2z"/>
	<path class="st1" d="M317.7,21.5c-0.3,0-0.7,0-1,0C317,21.5,317.4,21.2,317.7,21.5z"/>
	<path class="st1" d="M329.1,32.9c0-0.3,0-0.3,0-0.7C329.4,32.6,329.4,32.9,329.1,32.9z"/>
	<path class="st1" d="M329.1,32.6c0-0.3,0-0.3,0-0.7C329.4,31.9,329.4,32.2,329.1,32.6z"/>
	<path class="st1" d="M329.4,31.6l-0.3-0.3l0.3-0.3C329.4,31.2,329.4,31.6,329.4,31.6z"/>
	<path class="st1" d="M311.3,19.1L311.3,19.1L311.3,19.1L311.3,19.1z"/>
	<path class="st1" d="M315,21.2c-0.3,0-0.7,0-1-0.3C314.7,20.8,315,21.2,315,21.2z"/>
	<path class="st1" d="M329.8,28.9c-0.3-0.3-0.3-0.7,0-0.7S330.1,28.5,329.8,28.9z"/>
	<path class="st1" d="M340.5,39.6c0.3,0.3,0.3,0.3,0,0.7C340.5,40.3,340.5,40,340.5,39.6z"/>
	<path class="st1" d="M326.4,44c-0.3,0-0.3,0.3-0.7,0.3c0-0.3,0-0.7,0-0.7C326.1,43.7,326.1,44,326.4,44z"/>
	<path class="st1" d="M326.8,44.3l-0.3-0.3l0.3-0.3C327.1,44,326.8,44,326.8,44.3z"/>
	<path class="st1" d="M325.7,43c0.3,0.3,0.3,0.7,0,0.7C325.7,43.3,325.7,43.3,325.7,43z"/>
	<path class="st1" d="M311.3,24.9c0,0.3-0.3,0.3-0.7,0C310.6,24.5,310.6,24.5,311.3,24.9C311,24.5,311.3,24.5,311.3,24.9z"/>
	<path class="st1" d="M331.8,44c0-0.3,0.3-0.3,0.3-0.7C332.5,43.7,332.5,44,331.8,44z"/>
	<path class="st1" d="M327.1,43v-0.3V43L327.1,43z"/>
	<path class="st1" d="M325.7,41.6c0,0.3,0,0.7,0,0.7C325.7,42,325.7,41.6,325.7,41.6z"/>
	<path class="st1" d="M327.1,42.3V42V42.3z"/>
	<path class="st1" d="M326.1,41c0,0.3,0,0.3,0,0.7C325.7,41.3,325.7,41,326.1,41z"/>
	<path class="st1" d="M327.1,41.6c0-0.3,0-0.3,0-0.7C327.1,41.3,327.1,41.6,327.1,41.6z"/>
	<path class="st1" d="M304.9,37.6L304.9,37.6L304.9,37.6L304.9,37.6z"/>
	<path class="st1" d="M340.5,26.9L340.5,26.9l0.7-0.3h0.3c0,0.3,0,0.7,0,0.7c0,0.3,0,0.3,0,0.7l0,0c0,0.3,0,0.3-0.3,0.3h-0.3
		c-0.3,0-0.7-0.3-0.7-0.7C340.5,27.5,340.5,27.2,340.5,26.9z"/>
	<path class="st1" d="M341.2,26.2L341.2,26.2C341.5,25.5,341.9,25.9,341.2,26.2C341.5,26.5,341.5,26.5,341.2,26.2
		C341.2,26.5,341.2,26.5,341.2,26.2z"/>
	<polygon class="st1" points="342.2,27.9 342.2,27.9 342.2,27.9 342.2,27.5 	"/>
	<path class="st1" d="M341.5,28.2c0-0.3,0-0.3,0-0.7C341.5,27.5,341.9,27.5,341.5,28.2C341.9,27.9,341.5,27.9,341.5,28.2z"/>
	<path class="st1" d="M260.9,47L260.9,47C260.9,46.7,260.9,46.7,260.9,47z"/>
	<path class="st1" d="M261.6,41C261.9,40.6,261.9,40.6,261.6,41L261.6,41C261.9,41,261.9,41,261.6,41z"/>
	<path class="st1" d="M313,9.7c0-0.3,0.3-0.3,0.7-0.3C313.7,9.4,313.7,10.1,313,9.7z"/>
	<path class="st1" d="M312,45.3c0,0,0,0.3-0.3,0.3L312,45.3L312,45.3C311.6,45.3,311.6,45.3,312,45.3z"/>
	<path class="st1" d="M340.5,27.9c0.3,0.3,0.3,0.3,0.7,0.7c0.3,0,0.3,0.3,0.3,0.3s0,0.3-0.3,0.3c-0.3-0.3-0.7-0.7-1-1
		C340.2,27.9,340.2,27.9,340.5,27.9z"/>
	<path class="st1" d="M334.1,38.6c0.3-0.3,0.3-0.7,0.7-0.7l0.3,0.3C334.8,38.6,334.5,38.6,334.1,38.6z"/>
	<path class="st1" d="M262.9,35.9C263.3,35.9,263.3,35.9,262.9,35.9v0.3V35.9L262.9,35.9z"/>
	<path class="st1" d="M301.2,36.9L301.2,36.9C301.2,36.9,301.2,36.6,301.2,36.9C301.6,36.9,301.6,36.9,301.2,36.9L301.2,36.9z"/>
	<path class="st1" d="M271,35.3C271,35.6,270.7,35.6,271,35.3L271,35.3z"/>
	<path class="st1" d="M271.3,32.9L271.3,32.9L271.3,32.9L271.3,32.9z"/>
	<g>
		<path class="st1" d="M216.3,34.6c0-2.7,1-5,1.7-7.7c0.3-0.3,0.7-0.3,1,0c-0.3,2.7-1,5-2,7.7C216.9,34.6,216.6,34.6,216.3,34.6
			L216.3,34.6z"/>
		<path class="st1" d="M226,73.9c0.3,0.3,0.7,0.3,1,0.7c0.7,0.3,0.3,0.7,0,1l0,0c-0.3,0-0.7-0.3-1-0.3h-0.3l0,0
			c-0.3,0-0.3,0-0.7-0.3c-0.7-0.7-0.7-0.7-1-1c-0.3,0-0.7-0.3-1-0.7c-0.7-0.3-1-0.7-1.3-1c0-0.7-0.7-0.7-1-1c-0.7-1-1.7-1.3-2-2.7
			c1,0,1,1,1.7,1c1,1,2,1.7,3,2.7c0.7,0,0.7,0.7,1.3,1h0.3C225.3,73.9,225.7,73.9,226,73.9z"/>
		<path class="st1" d="M226,15.1L226,15.1c0.7,0.3,0.3,0.7,0.3,1c-1.3,0.7-2.4,2-3.7,3c-0.3,0-0.7,0.3-1,0.7c0,0-0.3,0.3-0.7,0
			c1-2,2.4-3.4,4-4.7C225.7,15.1,225.7,15.4,226,15.1z"/>
		<path class="st1" d="M215.9,60.1c-0.7-2.4-1-4.7-0.7-7.4h0.3c0.3,0,0.3,0,0.3,0.3v0.3l0,0l0,0c0,0.3,0,0.3,0,0.7l0,0
			c0,0.3,0.3,0.7,0.3,1l0,0c0,0.3,0,0.3,0,0.7c0,1,0,1.7,0.3,2.7c0,0.3,0,0.3,0,0.7c0,0.3,0,0.3,0,0.7L215.9,60.1
			C216.3,60.4,216.3,60.4,215.9,60.1C215.9,60.4,215.9,60.1,215.9,60.1z"/>
		<path class="st1" d="M237.1,75.9c-0.3,0.3-0.7,0.3-1,0.3s-0.3,0-0.7,0c-1,0.7-2.4,0.3-3.4,0.3v-0.3c0-0.3,0.3-0.3,0.3-0.3
			c1.3-0.7,3-1,4.4-1C237.4,75.2,237.4,75.6,237.1,75.9z"/>
		<path class="st1" d="M235.7,21.5c-1.7-1.7-3.4-3.7-5.4-4.7c-0.7-0.3-1-0.7-0.3-1c0.3,0,1,0,1.3,0.3c2,1.3,3.7,3,5,5l0,0
			C236.4,21.2,236.1,21.5,235.7,21.5C236.1,21.5,235.7,21.5,235.7,21.5z"/>
		<path class="st1" d="M217.9,64.8c0.7,1.3,1.3,3,2,4.4c-0.7,0-0.7-0.7-1.3-0.7c-0.3-1-1.7-1.7-1.3-3.4
			C217.3,64.8,217.6,64.8,217.9,64.8z"/>
		<path class="st1" d="M238.8,74.2c1-0.7,2-1,3-1.7c0.3,0,0.3,0,0.3,0.3c-1,1.3-2,2-3.7,2.4C238.1,74.9,238.8,74.9,238.8,74.2z"/>
		<path class="st1" d="M230,15.8c-0.3,0.3,0,0.7,0.3,1c-1.3-0.3-2.4-0.3-3.7-0.7c-0.3-0.3,0-0.7,0-1c0.7-0.3,1.3-0.3,2,0
			c0.3,0,0.7,0,0.7,0C230,15.4,230,15.4,230,15.8z"/>
		<path class="st1" d="M228.4,75.2c1,0,2,0.3,3.4,0.3c0,0,0.3,0,0.3,0.3l0.3,0.3v0.3c-1.3,0.3-2.7-0.3-4-0.7
			C228.4,75.6,228,75.6,228.4,75.2z"/>
		<path class="st1" d="M236.4,21.2c-1.7-1.7-3.4-3.4-5-5C233.4,17.5,235.4,18.8,236.4,21.2z"/>
		<path class="st1" d="M216.9,34.9c0.7,1,0,2,0,3h-0.3c0,0-0.3-0.3-0.3-0.7c-0.7-1,0-1.7,0-2.7h0.3
			C216.6,34.6,216.9,34.6,216.9,34.9z"/>
		<path class="st1" d="M242.1,72.5c1-1,2-2,3-3c-0.7,1.3-1,3-2.7,3.4C242.1,72.9,242.1,72.5,242.1,72.5z"/>
		<path class="st1" d="M220.6,22.8c0,1-0.7,1.7-1,2.7c-0.3,0-0.3,0-0.7,0c0,0,0,0-0.3,0c-0.3-1,0.3-1.3,0.7-2
			C220,22.8,220.3,22.8,220.6,22.8z"/>
		<path class="st1" d="M220.6,22.8c-0.3,0.3-0.7,0.7-1.3,0.3l0,0c0-0.3,0-0.3,0-0.7c0.7-1,1-1.7,1.7-2.7h0.3h0.3v0.3l0,0
			c-0.3,0,0,0.3-0.3,0.7c-0.3,0.3-0.3,0.3-0.7,0.7C221,22.2,220.6,22.5,220.6,22.8L220.6,22.8z"/>
		<path class="st1" d="M216.3,62.5c-0.3-0.7-0.7-1.7-0.3-2.4h0.3h0.3h0.3c0.3,0.7,0.3,1.7,0.3,2.4c0,0,0,0-0.3,0
			C216.6,62.8,216.6,62.8,216.3,62.5z"/>
		<path class="st1" d="M215.3,43.3c-0.3-0.7,0-1.3,0-2.4c0.3,0,0.7,0,0.7,0.3c0.3,0.7,0.3,1.7,0,2.4
			C215.6,43.7,215.6,43.3,215.3,43.3z"/>
		<path class="st1" d="M215.9,44.7c0.3,0.7,0.3,1.7,0,2.4c-0.3,0-0.7,0.3-0.7,0c0-0.7-0.3-1.7,0-2.4h0.3
			C215.6,44.7,215.6,44.7,215.9,44.7C215.6,44.7,215.9,44.7,215.9,44.7z"/>
		<path class="st1" d="M215.3,52.7c-0.3-0.7-0.3-1.3,0-2.4h0.3h0.3h0.3c0.3,0.7,0.3,1.3,0,2l0,0C215.6,53.1,215.6,53.1,215.3,52.7
			C215.3,53.1,215.3,53.1,215.3,52.7z"/>
		<path class="st1" d="M216.3,41.3c-0.3,0-0.3-0.3-0.7-0.3c-0.3-0.3-0.3-1,0-1.3c0.3,0,0.3,0,0.7-0.3h0.3
			C216.3,40,216.6,40.6,216.3,41.3z"/>
		<path class="st1" d="M217.9,64.8c-0.3,0-0.3,0.3-0.7,0.3c-0.7-0.7-1-1.3-0.7-2.4c0.3,0,0.7,0.3,0.7,0.7
			C217.6,64.1,217.9,64.5,217.9,64.8z"/>
		<path class="st1" d="M238.8,74.2c0,0.3-0.3,0.7-0.3,1c-0.3,0-0.7,0.3-1,0.3c0-0.3,0-0.7,0-1C237.8,74.9,238.1,74.6,238.8,74.2z"/>
		<path class="st1" d="M219,26.9c-0.3,0-0.7,0-1,0c-0.3-0.7,0.3-1,0.7-1.3c0,0,0,0.3,0.3,0c0.3,0,0.3,0,0.3,0.3
			C219.6,26.2,219.3,26.5,219,26.9z"/>
		<path class="st1" d="M215.9,39c-0.3-0.3-0.3-1,0.3-1.3c0.3,0,0.3,0,0.7,0h0.3c0,0.7,0,1-0.3,1.7h-0.3
			C215.9,39.3,215.9,39.3,215.9,39z"/>
		<path class="st1" d="M218.6,68.5c0.7,0,1,0.7,1.3,0.7c0.3,0.3,0.3,0.3,0.7,0.7c-1,0-1-1-1.7-1L218.6,68.5L218.6,68.5z"/>
		<path class="st1" d="M220.6,71.2c1,0,1.3,0.3,1,1C221,72.2,220.6,72.2,220.6,71.2z"/>
		<path class="st1" d="M246.8,67.8c0,0.7-0.3,1-1,1c-0.3-0.7,0-1,0.3-1.3C246.8,67.5,246.8,67.5,246.8,67.8z"/>
		<path class="st1" d="M226.7,75.2c0-0.3,0-0.7,0-1c0.3,0,0.7,0,1,0.3c0,0.3,0,0.7,0,0.7C227.7,75.6,227.4,75.6,226.7,75.2z"/>
		<path class="st1" d="M215.3,50.7c0-0.3-0.3-1,0-1.3h0.3c0,0,0,0.3,0.3,0.3c0.3,0.3,0.3,0.7,0,1l0,0l0,0L215.3,50.7L215.3,50.7z"/>
		<path class="st1" d="M221.6,20.5C221.6,20.1,221.6,20.1,221.6,20.5c0-0.7,0.3-1.3,1-1C222.3,19.5,222,19.8,221.6,20.5z"/>
		<path class="st1" d="M215.9,48.4c0,0.3,0,0.3,0,0.7c0,0.3,0,0.3-0.3,0.3l0,0C215.6,49,215.3,48.4,215.9,48.4L215.9,48.4
			C215.6,48,215.9,48,215.9,48.4z"/>
		<path class="st1" d="M215.3,47.4c0.3,0,0.7-0.3,0.7,0c0,0.3,0,0.3,0,0.7h-0.3h-0.3C214.9,47.7,214.9,47.4,215.3,47.4z"/>
		<path class="st1" d="M215.9,44c0,0.3,0,0.3,0,0.7h-0.3l0,0h-0.3c0-0.3,0-0.7,0-0.7C215.6,44,215.6,44,215.9,44z"/>
		<path class="st1" d="M225,73.5c-0.7,0-1-0.3-1.3-1C224,72.9,224.7,73.2,225,73.5z"/>
		<path class="st1" d="M215.9,44c-0.3,0-0.3,0-0.7,0c-0.3-0.3,0-0.7,0-1c0.3,0,0.3,0.3,0.7,0.3C215.9,43.7,215.9,44,215.9,44z"/>
		<path class="st1" d="M223,73.5c0.3,0,0.7,0,1,0.7C223.7,73.9,223.3,73.9,223,73.5z"/>
		<path class="st1" d="M246.8,67.8c-0.3,0-0.3-0.3-0.7-0.3c0.3,0,0.3-0.3,0.7-0.3C247.5,67.2,246.8,67.5,246.8,67.8z"/>
		<path class="st1" d="M225.7,74.9c0.3,0,0.7,0,1,0.3C226.3,75.6,226,75.2,225.7,74.9z"/>
		<path class="st1" d="M216.3,55.4c-0.3-0.3-0.3-0.7-0.3-1C216.3,54.7,216.6,55.1,216.3,55.4z"/>
		<path class="st1" d="M217.3,63.8c-0.3-0.3-0.7-0.3-0.7-0.7l0,0c0,0,0-0.3,0.3-0.3h0.3C217.3,62.8,217.6,63.1,217.3,63.8z"/>
		<path class="st1" d="M228,75.6c0-0.3,0-0.7,0-0.7s0.3,0,0.3,0.3s0,0.7,0,0.7S228,75.9,228,75.6z"/>
		<path class="st1" d="M226.7,15.4c0,0.3,0,0.7,0,1c0,0-0.3,0.3-0.3,0C226.3,16.1,226.3,15.8,226.7,15.4
			C226.7,15.1,226.7,15.1,226.7,15.4z"/>
		<path class="st1" d="M249.5,62.8C249.2,62.8,249.2,62.8,249.5,62.8c-0.3-0.3-0.3-0.3,0-0.3c0,0,0,0,0.3,0
			C249.5,62.5,249.5,62.8,249.5,62.8z"/>
		<path class="st1" d="M248.2,64.5v-0.3h0.3L248.2,64.5C248.5,64.5,248.5,64.5,248.2,64.5z"/>
		<path class="st1" d="M220.6,22.8c0-0.7,0.3-0.7,0.7-1C221.3,22.2,221,22.5,220.6,22.8z"/>
		<path class="st1" d="M219.3,25.9C219.3,25.9,219,25.9,219.3,25.9C219.3,25.2,219.3,25.5,219.3,25.9
			C219.6,25.5,219.6,25.9,219.3,25.9z"/>
		<path class="st1" d="M221.6,21.2c0-0.3-0.3-0.7,0.3-0.7C222,20.8,222,20.8,221.6,21.2z"/>
		<path class="st1" d="M219.6,22.5c0,0.3,0,0.3,0,0.7C219.3,22.8,219.3,22.8,219.6,22.5z"/>
		<path class="st1" d="M232.1,76.2L232.1,76.2c-0.3-0.3-0.3-0.7,0-0.7h0.3C232.4,75.9,232.4,76.2,232.1,76.2z"/>
		<path class="st1" d="M232.4,75.6l-0.3,0.3l-0.3-0.3C231.7,75.6,232.1,75.6,232.4,75.6z"/>
		<path class="st1" d="M216.6,59.4c-0.3-0.3-0.3-0.3,0-0.7C216.9,58.8,216.9,59.1,216.6,59.4z"/>
		<path class="st1" d="M235.7,76.2c0.3-0.3,0.3-0.3,0.7,0C236.1,76.2,235.7,76.2,235.7,76.2z"/>
		<path class="st1" d="M216.3,56.1c0-0.3,0-0.3,0-0.7C216.6,55.7,216.3,56.1,216.3,56.1z"/>
		<path class="st1" d="M215.9,54.4c0-0.3,0-0.3,0-0.7C215.9,54.1,215.9,54.1,215.9,54.4z"/>
		<path class="st1" d="M224.7,74.6c0.3,0,0.7,0,0.7,0.3C225.3,74.6,225,74.6,224.7,74.6z"/>
		<path class="st1" d="M226,73.9c-0.3,0-0.3,0-0.7-0.3C225.7,73.5,225.7,73.9,226,73.9z"/>
		<path class="st1" d="M216.9,62.8C216.9,62.8,216.6,62.8,216.9,62.8C216.6,63.1,216.6,62.8,216.9,62.8
			C216.6,62.8,216.6,62.8,216.9,62.8z"/>
		<path class="st1" d="M215.9,39l0.3,0.3c0,0.3-0.3,0.3-0.7,0C215.6,39.3,215.6,39.3,215.9,39z"/>
		<path class="st1" d="M216.6,37.6c0,0.3-0.3,0.3-0.7,0c0-0.3,0-0.3,0-0.7C216.3,37.3,216.3,37.6,216.6,37.6z"/>
		<polygon class="st1" points="247.8,65.8 247.8,65.5 247.8,65.5 		"/>
		<path class="st1" d="M216.9,34.9c0,0,0-0.3-0.3-0.3h0.3C216.9,34.6,216.9,34.6,216.9,34.9z"/>
		<path class="st1" d="M215.9,53.4l-0.3-0.3l0,0h0.3V53.4z"/>
		<path class="st1" d="M215.3,49.4c0,0,0-0.3,0.3-0.3c0.3,0.3,0.3,0.7,0,1C215.6,49.7,215.6,49.4,215.3,49.4z"/>
		<path class="st1" d="M215.6,47.7L215.6,47.7l0.3,0.3C215.6,48,215.6,48,215.6,47.7z"/>
		<path class="st1" d="M242.1,72.5l0.3,0.3l-0.3,0.3l-0.3-0.3C241.8,72.5,241.8,72.5,242.1,72.5z"/>
		<path class="st1" d="M236.4,21.5c-0.3,0-0.3,0-0.7,0C235.7,21.5,236.1,21.5,236.4,21.5L236.4,21.5L236.4,21.5z"/>
		<path class="st1" d="M229.7,15.4c-0.3,0-0.7,0-0.7,0C229.4,15.1,229.4,15.1,229.7,15.4z"/>
		<path class="st1" d="M226,15.1c-0.3,0.3-0.3,0.3-0.7,0.3C225.7,15.1,225.7,15.1,226,15.1z"/>
		<path class="st1" d="M216.6,60.1L216.6,60.1L216.6,60.1C216.3,60.1,216.3,60.1,216.6,60.1z"/>
		<polygon class="st1" points="215.6,53.1 215.6,53.1 215.6,53.1 215.6,52.7 		"/>
		<polygon class="st1" points="215.6,44.7 215.6,44.7 215.6,45 		"/>
		<path class="st1" d="M215.6,50.7L215.6,50.7L215.6,50.7z"/>
	</g>
	<path class="st1" d="M341.5,28.9c0,0,0-0.3-0.3-0.3l0.3-0.3C341.9,28.5,341.5,28.5,341.5,28.9z"/>
	<polygon class="st1" points="276.7,46 276.7,46 276.7,46.3 	"/>
	<path class="st1" d="M277.1,48.4L277.1,48.4C276.7,48,276.7,48.4,277.1,48.4z"/>
	<path class="st1" d="M311.3,37.9v0.3V37.9C311,37.6,311.3,37.6,311.3,37.9z"/>
	<path class="st1" d="M277.1,40.6L277.1,40.6L277.1,40.6L277.1,40.6z"/>
	<path class="st1" d="M341.2,26.2L341.2,26.2L341.2,26.2C340.9,26.5,340.9,26.5,341.2,26.2z"/>
	<path class="st1" d="M311.3,31.2L311.3,31.2L311.3,31.2L311.3,31.2z"/>
	<path class="st1" d="M311,27.9C311,27.5,311.3,27.5,311,27.9L311,27.9L311,27.9z"/>
</g>
<g>
	<polygon class="st0" points="29.6,91 5.7,68.8 29.6,14.8 32.6,21.5 35.3,15.4 29.6,3 0,69.9 29.6,97.4 36.6,91 33.2,87.6 	"/>
	<polygon class="st2" points="53.4,68.8 36.6,84.3 40.3,87.6 59.1,69.9 37.6,21.5 35.3,27.5 	"/>
	<polygon class="st0" points="29.6,74.2 19.1,64.5 29.6,40.6 30.9,43.7 31.9,41 29.6,35.3 16.5,64.8 29.6,77.2 32.6,74.2 31.2,72.9 
			"/>
	<polygon class="st0" points="40,64.5 32.6,71.2 34.3,72.9 42.6,64.8 33.2,43.7 31.9,46.3 	"/>
</g>
</svg>
