<?xml version="1.0" encoding="utf-8"?>
<!-- Generator: Adobe Illustrator 19.2.1, SVG Export Plug-In . SVG Version: 6.00 Build 0)  -->
<svg version="1.1" id="Layer_1" xmlns="http://www.w3.org/2000/svg" xmlns:xlink="http://www.w3.org/1999/xlink" x="0px" y="0px"
	 viewBox="0 0 121.3 30" style="enable-background:new 0 0 121.3 30;" xml:space="preserve">
<style type="text/css">
	.st0{fill:#FFFFFF;}
	.st1{fill:#00A69C;stroke:#00A69C;stroke-width:0.4537;stroke-miterlimit:10;}
	.st2{fill:#00A69C;}
</style>
<g>
	<g>
		<path class="st0" d="M31.1,20.8c0,0.8-0.7,1.5-1.5,1.5c-0.9,0-1.6-0.7-1.6-1.5V7.7c0-0.9,0.7-1.5,1.5-1.5S31,6.9,31,7.7v6.1h-1.1
			V7.6c0-0.2-0.2-0.3-0.4-0.3s-0.3,0.1-0.3,0.3v13.2c0,0.2,0.2,0.4,0.4,0.4c0.2,0,0.4-0.2,0.4-0.4v-6.2h1.2v6.2H31.1z"/>
		<path class="st0" d="M37.3,7.7v7.1h-1.2V7.6c0-0.2-0.1-0.3-0.3-0.3s-0.4,0.1-0.4,0.3v14.6h-1.2V7.7c0-0.2-0.2-0.4-0.4-0.4v-1
			c0.3,0,0.6,0.1,0.9,0.3c0.3-0.3,0.7-0.4,1.1-0.4C36.6,6.2,37.3,6.9,37.3,7.7z"/>
		<path class="st0" d="M43.5,30.3h-1.2v-8c-0.1,0-0.2,0-0.3,0c-0.9,0-1.5-0.7-1.5-1.5V6.3h1.2v14.6c0,0.2,0.2,0.4,0.4,0.4
			s0.4-0.2,0.4-0.4V6.3h1.2L43.5,30.3z"/>
		<path class="st0" d="M48.6,7.6c0-0.2-0.2-0.4-0.4-0.4s-0.4,0.2-0.4,0.4v5.7c0,0.2,0.2,0.4,0.4,0.4c0.8,0,1.5,0.7,1.5,1.5v5.5
			c0,0.9-0.7,1.5-1.5,1.5c-0.9,0-1.5-0.7-1.5-1.5v-5.6h1.2v5.7c0,0.2,0.2,0.4,0.4,0.4s0.4-0.2,0.4-0.4v-5.7c0-0.2-0.2-0.4-0.4-0.4
			c-0.8,0-1.5-0.7-1.5-1.5V7.7c0-0.9,0.7-1.5,1.5-1.5c0.9,0,1.5,0.7,1.5,1.5v5.6h-1.2V7.6z"/>
		<path class="st0" d="M54,20.9c0,0.2,0.2,0.4,0.4,0.4s0.4-0.2,0.4-0.4V8.1H56v12.7c0,0.8-0.7,1.5-1.5,1.5S53,21.6,53,20.8V0.3h1v6
			h2v1.1h-2V20.9z"/>
		<path class="st0" d="M62.6,22.2c-0.3,0-0.6-0.1-0.9-0.3c-0.3,0.2-0.6,0.4-1,0.4c-0.9,0-1.5-0.7-1.5-1.5v-5.5
			c0-0.9,0.7-1.5,1.5-1.5c0.1,0,0.3,0,0.4,0V7.6c-0.1-0.2-0.3-0.3-0.5-0.3s-0.4,0.2-0.4,0.4v5.6H59V7.7c0-0.9,0.7-1.5,1.5-1.5
			S62,6.9,62,7.7v13.1c0,0.2,0.2,0.4,0.4,0.4v1C62.4,22.2,62.6,22.2,62.6,22.2z M61,15.2c0-0.2-0.2-0.4-0.4-0.4s-0.4,0.2-0.4,0.4
			v5.7c0,0.2,0.2,0.4,0.4,0.4s0.4-0.2,0.4-0.4V15.2z"/>
		<path class="st0" d="M66.5,20.9c0,0.2,0.2,0.4,0.4,0.4v1c-0.8,0-1.5-0.7-1.5-1.5v-17h1.2L66.5,20.9L66.5,20.9z"/>
	</g>
	<g>
		<path class="st1" d="M107,12.2c0,0.1,0.1,0.1,0.1,0.2c0,0.1,0.1,0.2,0.3,0.2c0.2,0,0.5-0.1,0.7-0.1c0.1,0,0.2,0,0.3-0.1
			c0.7-0.4,1.4-0.8,2-1.1c0.1,0,0.2,0,0.2,0c0.2-0.1,0.4-0.1,0.6-0.2c0.1,0,0.2,0,0.2,0c1-0.1,1.7,0.5,2.3,1.2
			c0.1,0.1,0.1,0.2,0.1,0.3c0.1,0.2,0.3,0.5,0.3,0.8c0,0.1-0.1,0.2-0.2,0.2c-0.2-0.3-0.4-0.7-0.6-1.1c-0.9-1.2-1.8-1.4-3.4-0.5
			c-0.7,0.4-1.3,0.7-2,0.9s-0.9,0.1-1.2-0.6c0-0.1,0-0.1,0-0.2l0,0C106.8,12,106.9,12,107,12.2z"/>
		<path class="st1" d="M82.2,4.5c0,0.4,0,0.9-0.2,1.2c0,0.1,0,0.2-0.1,0.3v0.1c0,0.1,0,0.2,0,0.3c-0.1,0.7-0.2,1.4-0.4,2.1
			c0,0.1,0,0.2,0,0.3c0,0.2-0.1,0.3-0.1,0.5c-0.1,0-0.2,0.1-0.2,0c0-1.2,0.2-2.4,0.4-3.7c0-0.2,0.1-0.4,0.1-0.7
			c0-0.1,0.1-0.2,0.1-0.3C81.9,4.5,82,4.3,82,4.1c0.1,0,0.1,0,0.2-0.1c0.1,0,0.1,0.1,0.1,0.1l0,0C82.3,4.3,82.2,4.4,82.2,4.5z"/>
		<path class="st1" d="M113.8,13.5c0.1-0.1,0.2-0.1,0.2-0.2c0.3,0.5,0.4,1,0.6,1.6c0.1,0.3,0.1,0.5,0.3,0.8c0,0.1,0,0.2,0,0.2
			c0.1,0.5,0.1,1.1,0.4,1.5c0,0.2,0.2,0.2,0.2,0.4l0,0c0,0.1,0.1,0.2,0.2,0.3c0.1,0,0.1,0.1,0.2,0.2c0,0.1-0.1,0.1-0.2,0.1
			c-0.2-0.1-0.3-0.3-0.4-0.5c-0.2-0.3-0.4-0.6-0.5-0.9c-0.1-0.2-0.2-0.3-0.1-0.5c0-0.6-0.4-1.1-0.5-1.7
			C114.1,14.5,113.9,14,113.8,13.5z"/>
		<path class="st1" d="M100.6,7.2C100,7.1,99.5,7,98.9,7c-0.3,0-0.5,0-0.8,0c-0.1,0.3,0,0.6-0.1,0.8h-0.1c-0.1,0-0.1-0.1-0.1-0.1
			C97.7,7,97.7,7,97,7c-0.1,0-0.3-0.1-0.4-0.1c-0.1-0.1-0.1-0.2,0-0.3c0.3,0,0.6-0.1,0.9-0.1c0.3,0.1,0.3-0.2,0.4-0.3H98
			c0,0,0,0,0.1,0.1c0,0.5,0.4,0.4,0.7,0.5c0.1,0.1,0.2,0.1,0.3,0.1c0.2,0,0.3,0,0.5,0.1c0.1,0,0.2,0,0.3,0c0.3,0,0.6-0.1,0.8,0.1
			C100.8,6.9,100.8,7,100.6,7.2z"/>
		<path class="st1" d="M90.8,13c0.1,0.9,0.1,1.8,0.2,2.6c0,0.2,0.1,0.4,0.2,0.6s0.3,0.4,0.5,0.5l0,0c0.1,0,0.1,0,0.2,0.1
			c0,0,0.1,0.1,0.1,0.2s-0.1,0.1-0.1,0.1l0,0c-0.1,0-0.1,0-0.2,0c-0.7-0.1-0.8-0.6-1-1.1c-0.3-0.9-0.4-1.9-0.3-2.9
			C90.6,12.9,90.7,12.9,90.8,13z"/>
		<path class="st1" d="M100.6,7.2c0-0.1,0-0.2,0-0.3c0.7,0.1,1.4,0.2,2,0.6c0.5,0.3,0.7,0.7,0.8,1.2c0,0.1,0,0.2,0,0.2
			c-0.1,0.2-0.1,0.4-0.2,0.6c0,0.1-0.1,0.1-0.1,0.1c-0.1,0.1-0.1,0-0.1-0.1c-0.1-0.4,0.1-0.8-0.1-1.2c-0.1-0.3-0.3-0.4-0.5-0.5
			C101.8,7.5,101.2,7.4,100.6,7.2z"/>
		<path class="st1" d="M95.8,11.6c0,0,0-0.1,0.1-0.1c0,0,0,0,0.1,0s0.1,0,0.2,0c0,0,0,0,0.1,0.1c-0.1,1-0.2,2.1-0.4,3.1
			c0,0.2-0.1,0.3-0.2,0.4c-0.1,0.1-0.2,0.1-0.3,0c-0.1-0.2-0.1-0.3,0-0.5c0.2-0.5,0.2-1,0.3-1.4c0-0.1,0-0.2,0-0.2
			c0-0.3,0.1-0.6,0.1-0.9C95.7,11.8,95.8,11.7,95.8,11.6z"/>
		<path class="st1" d="M103,9.5l0.1,0.1c0.1,0,0.1,0,0.1,0.1l0,0c0,0.1,0,0.1,0,0.2l0,0c0,0.1,0,0.1,0,0.2c0,0.1-0.1,0.1-0.1,0.2
			c-0.1,0.1-0.1,0.2,0,0.3c-0.1,0.7-0.2,1.3-0.4,1.9c0,0.1,0,0.1,0,0.2l0,0v0.1v0.1V13v0.1c0,0,0,0.1-0.1,0.1h-0.1l-0.1-0.1l0,0
			c0.1-0.1,0-0.2,0-0.2c0-0.1,0-0.1,0-0.2c0-0.1,0.1-0.2,0-0.2l0,0c0-0.1,0-0.1,0-0.2c0.1-0.8,0.2-1.6,0.6-2.4c0-0.1,0-0.1,0-0.2
			C102.9,9.7,103,9.6,103,9.5z"/>
		<path class="st1" d="M81.3,11.7c0,0.3-0.2,0.6-0.1,0.9c0,0.1,0,0.1,0,0.2c-0.1,0.1-0.1,0.1,0,0.2c0,0.1,0.1,0.1,0,0.2
			c0,0.1,0,0.1-0.1,0.2c0,0.1,0,0.2,0,0.3c-0.1,0.2-0.2,0.1-0.2,0s0-0.2,0-0.2c0-0.1,0-0.1,0-0.2v-0.1c0.1-0.1,0.1-0.2,0-0.3
			c0-0.1,0-0.1,0-0.2c-0.1-0.2,0-0.4,0-0.6l0,0c0-0.1,0-0.2,0-0.3c0.1-0.5,0-1.1,0.3-1.6c0.1-0.1,0.2-0.1,0.3,0
			c0.1,0.2-0.1,0.4,0,0.6c0,0.1,0,0.2,0,0.3v0.1C81.3,11.5,81.2,11.6,81.3,11.7z"/>
		<path class="st1" d="M80.8,16.1c0,1,0,1.9,0.1,2.9c-0.1,0.1-0.2,0.1-0.3,0c-0.1-0.9-0.3-1.8-0.1-2.7c0.1,0,0.1-0.1,0-0.1l0,0
			C80.6,16.1,80.7,16.1,80.8,16.1z"/>
		<path class="st1" d="M107,12.2c-0.1,0-0.2,0-0.3-0.1c-0.2-0.6-0.2-1.3,0-1.9c0-0.1,0-0.1,0-0.2l0,0c0-0.1,0-0.1,0-0.2l0,0
			c0-0.1,0-0.1,0-0.2l0,0c0-0.1,0-0.1,0-0.2l0,0c0.1-0.2,0.1-0.4,0.4-0.2l0,0c0,0.1,0,0.1,0,0.2l0,0c0,0.1,0,0.1,0,0.2l0,0
			c0,0.1-0.1,0.2-0.1,0.3l0,0c0,0.1,0,0.1,0,0.2C106.9,10.7,106.9,11.5,107,12.2z"/>
		<path class="st1" d="M96.6,6.5c0,0.1,0,0.2,0,0.3c-0.6,0.2-1.3,0-2,0.1c-0.1,0.1-0.3,0.1-0.4,0c0-0.1-0.1-0.1,0-0.2
			C94.9,6.5,95.7,6.4,96.6,6.5z"/>
		<path class="st1" d="M82.8,16.6c-0.2-0.4-0.2-0.9-0.1-1.4c0.1-0.1,0.1-0.2,0-0.3l0,0c0.1-0.1,0.2-0.1,0.3,0c0.1,0.4,0,0.9,0.1,1.3
			c0.1,0.5,0.3,0.8,0.7,1.1c0.2,0.1,0.3,0.2,0.1,0.3l0,0c-0.1,0-0.2-0.1-0.3-0.2c-0.2-0.1-0.4-0.3-0.6-0.5
			C82.9,16.8,82.9,16.7,82.8,16.6C82.9,16.7,82.9,16.6,82.8,16.6z"/>
		<path class="st1" d="M102.5,13.5c0.1,0.2,0.1,0.3,0.2,0.5c0.3-0.1,0.5-0.3,0.7-0.4c0.1,0,0.1,0,0.2,0c0,0.1,0,0.1,0,0.2
			c-0.1,0.3-0.4,0.3-0.6,0.4c-0.5,0.3-0.8,0.1-0.9-0.5c0-0.1,0-0.1,0-0.2c0-0.1,0.1-0.1,0.2-0.1l0,0
			C102.4,13.4,102.5,13.5,102.5,13.5z"/>
		<path class="st1" d="M106.9,7c0.2,0,0.3,0.1,0.3,0.3c0.1,0.4,0.2,0.8,0,1.3c0,0,0,0-0.1,0s-0.1,0-0.2,0c0,0,0,0-0.1,0l-0.1-0.1
			c0,0,0-0.1-0.1-0.1c0-0.1-0.1-0.1-0.2-0.1s-0.2-0.1-0.1-0.2c0-0.1,0-0.2,0.1-0.3c0.1-0.1,0-0.2,0.1-0.3c0-0.1,0.1-0.2,0.1-0.2
			C106.8,7.2,106.8,7.1,106.9,7z"/>
		<path class="st1" d="M82.7,14.3c0.1-0.6,0-1.3,0.3-1.8h0.1h0.1h0.1c0,0.6-0.1,1.2-0.3,1.8c0,0,0,0-0.1,0.1
			C82.9,14.3,82.9,14.3,82.7,14.3C82.8,14.3,82.8,14.3,82.7,14.3z"/>
		<path class="st1" d="M94,25.3c0,0.1,0,0.1-0.1,0.1c-0.3,0.3-0.2-0.1-0.3-0.2c0.3-0.5,0.1-1.2,0.4-1.7c0.1-0.1,0.2,0,0.3,0
			c0.1,0.3-0.1,0.6,0,0.9c0,0.1-0.2,0.2-0.1,0.3c0,0,0,0.1-0.1,0.1c-0.1,0.1-0.1,0.2,0,0.3l0,0C94.1,25.2,94.1,25.3,94,25.3z"/>
		<path class="st1" d="M87,11.8c0-0.3,0.3-0.4,0.3-0.7c0-0.2,0.2-0.3,0.4-0.3c0.2,0,0.3,0.2,0.2,0.4c0,0.2,0,0.3,0,0.5
			s-0.1,0.1-0.2,0.1c0-0.2-0.1-0.4-0.4-0.1C87.2,11.7,87.1,11.8,87,11.8L87,11.8z"/>
		<path class="st1" d="M94.2,6.7c0,0.1,0.1,0.1,0.1,0.2s0.1,0.2,0.2,0.3c0,0,0.1,0.1,0,0.2c-0.2,0.1-0.2,0-0.3-0.1
			c-0.1,0-0.1,0-0.2,0c-0.3-0.1-0.6-0.1-0.9-0.2c-0.1,0-0.2-0.1-0.2-0.2S93,6.8,93,6.8C93.4,6.6,93.8,6.6,94.2,6.7z"/>
		<path class="st1" d="M95.3,18c-0.1,0.3-0.1,0.7-0.2,1C95,19,95,19.1,95,19.2l0,0c0,0.1,0,0.1,0,0.2l0,0c-0.1,0.2-0.1,0.3-0.3,0.1
			l0,0c0-0.1,0-0.1,0-0.2c0-0.5,0.1-1,0.1-1.4c0.1-0.2,0.1-0.4,0.4-0.2l0,0C95.2,17.8,95.3,17.9,95.3,18z"/>
		<path class="st1" d="M95.4,15c0.1,0,0.2,0,0.3,0c0,0.1,0,0.3,0,0.4c0,0.1,0,0.1,0,0.2c0,0.3,0,0.6-0.1,0.8s-0.2,0.2-0.3,0
			C95.1,16,95.2,15.5,95.4,15z"/>
		<path class="st1" d="M98.7,3.1c0.1,0.6-0.3,1-0.4,1.5c-0.1,0.1-0.2,0.1-0.3,0.1c0.1-0.5,0.2-1,0.4-1.5c0,0,0,0,0.1,0
			C98.5,3.1,98.6,3.1,98.7,3.1L98.7,3.1z"/>
		<path class="st1" d="M90.6,11.5L90.6,11.5L90.6,11.5c0-0.1,0-0.2,0-0.3c0-0.2,0-0.4,0.1-0.6c0-0.2,0.1-0.4,0.4-0.4
			c0.1,0,0.1,0,0.2,0.1c0.2,0.2,0,0.4-0.1,0.5l-0.1,0.1c0,0.1,0,0.1,0,0.2c0,0.1,0,0.1,0.1,0.2v0.1v0.1c0,0.1,0,0.1-0.1,0.2
			c-0.1,0-0.1,0.1-0.2,0C90.6,11.7,90.6,11.6,90.6,11.5z"/>
		<path class="st1" d="M90.8,13c-0.1,0-0.2,0-0.3,0c-0.2-0.4,0-0.8,0.1-1.1c0-0.1,0.1-0.1,0.1-0.2h0.1c0.1,0,0.1,0.1,0.1,0.2l0,0
			c0,0.1,0,0.2,0,0.3C90.9,12.4,90.8,12.7,90.8,13z"/>
		<path class="st1" d="M98.2,14.2c0,0.2,0,0.5,0,0.7c0,0.1,0,0.2-0.1,0.2s-0.2-0.1-0.3-0.2c-0.1-0.2-0.1-0.5,0-0.7
			c0-0.1,0-0.2,0.1-0.4H98c0.1,0,0.1,0.1,0.1,0.1C98.1,14,98.2,14.1,98.2,14.2z"/>
		<path class="st1" d="M85.6,8.4c-0.4-0.2-0.6,0.2-0.9,0.3c-0.2,0-0.1-0.2-0.1-0.3c0.6-0.7,0.8-0.7,1.4,0.1c0,0.1,0,0.1-0.1,0.1
			h-0.1C85.8,8.5,85.7,8.5,85.6,8.4z"/>
		<path class="st1" d="M83.8,17.7c0-0.1,0-0.2-0.1-0.3c0.7,0.1,1.1-0.5,1.5-0.9c0.1,0,0.1,0,0.1,0.1s0,0.2-0.1,0.2
			c-0.1,0.2-0.2,0.3-0.4,0.4c-0.2,0.1-0.3,0.3-0.5,0.4C84.2,17.7,84,17.8,83.8,17.7z"/>
		<path class="st1" d="M94.4,23.6c-0.1,0-0.2,0-0.3,0c-0.1-0.4,0.1-0.8,0.2-1.2c0.1-0.2,0.2-0.3,0.3-0.1c0.1,0.3-0.2,0.6-0.1,0.9
			C94.5,23.3,94.5,23.4,94.4,23.6C94.4,23.5,94.4,23.5,94.4,23.6z"/>
		<path class="st1" d="M98,4.7c0.1-0.1,0.2-0.1,0.3-0.1c0,0.5,0,1-0.2,1.5H98V6C97.8,5.5,98,5.1,98,4.7z"/>
		<path class="st1" d="M95.1,16.5c0.1,0,0.2,0,0.3,0c0,0.4,0,0.8-0.1,1.2c-0.2-0.1-0.3,0.1-0.4,0.2C95,17.5,95,17,95.1,16.5z"/>
		<path class="st1" d="M85.6,8.4c0.1,0.1,0.2,0.2,0.3,0.2c0.1,0,0.1,0,0.1,0.1c0,0.4,0.4,0.7,0,1.1h-0.1C85.9,9.3,85.7,8.8,85.6,8.4
			z"/>
		<path class="st1" d="M105.7,9.8c0.2-0.5,0.2-1.1,0.6-1.5c0-0.1,0.1-0.1,0.2-0.1c0.1,0.1,0.1,0.2,0.1,0.3s0,0.1-0.1,0.2
			c0,0-0.1,0.1-0.2,0.1C106.1,9.1,106.1,9.5,105.7,9.8C105.8,9.9,105.8,9.9,105.7,9.8C105.7,9.9,105.7,9.8,105.7,9.8z"/>
		<path class="st1" d="M82.2,4c-0.1,0-0.1,0-0.2,0V3.9l0,0c0.1-0.1,0.1-0.2,0.1-0.2l0,0c0-0.1,0.1-0.2,0.1-0.3s0-0.2,0-0.3
			c0.1-0.1,0.1-0.2,0-0.3c0-0.1,0-0.2,0.1-0.3s0.2-0.2,0.3-0.2c0.1,0.1,0.1,0.2,0,0.3c0,0.1,0,0.2-0.1,0.2c0,0,0,0.1-0.1,0.1
			c0,0.1,0,0.1,0,0.2l0,0c0,0.1,0,0.1,0,0.2l0,0c0,0.1-0.1,0.2-0.1,0.3v0.1C82.4,4,82.3,4,82.2,4z"/>
		<path class="st1" d="M98.4,3.2c0-0.3,0.1-0.6,0.3-0.8c0.1-0.1,0.2-0.2,0.3-0.1c0.1,0.1,0.2,0.2,0.1,0.4C99,2.8,98.9,3,98.8,3.1
			h-0.1C98.6,3.1,98.5,3.2,98.4,3.2L98.4,3.2z"/>
		<path class="st1" d="M94.6,22.3c-0.1-0.1-0.2,0-0.3,0.1c0-0.4-0.1-0.7,0.2-1.1c0.1-0.1,0.2-0.1,0.3,0l0,0c0,0.1,0,0.2,0,0.2
			C94.7,21.8,94.8,22,94.6,22.3z"/>
		<path class="st1" d="M93.7,25.3c0.1,0.1,0.1,0.3,0.3,0.2c-0.1,0.4,0,0.8-0.4,1c-0.2-0.3,0.1-0.5,0-0.8c0-0.1,0-0.2,0-0.2
			C93.6,25.4,93.7,25.3,93.7,25.3z"/>
		<path class="st1" d="M105.1,11.8c-0.3,0.3-0.3,0.7-0.6,0.9c-0.1,0.2-0.1,0.3-0.3,0.1c0.1-0.2,0.2-0.5,0.3-0.7c0-0.1,0-0.2,0.1-0.2
			c0,0,0.1-0.1,0.2-0.1s0.2-0.1,0.3-0.1C105,11.7,105,11.7,105.1,11.8C105,11.7,105,11.7,105.1,11.8z"/>
		<path class="st1" d="M80.8,16.1c-0.1,0-0.2,0.1-0.2,0.1c-0.1-0.4-0.1-0.7,0.1-1.1c0.1,0,0.1,0,0.2,0c0.2,0.2,0,0.4,0.1,0.5
			c0,0.1,0,0.2,0,0.2C80.9,16,80.8,16,80.8,16.1z"/>
		<path class="st1" d="M83.1,12v-0.1c0-0.1,0-0.1,0.1-0.2c0-0.2,0-0.5,0.2-0.7h0.1h0.1c0.1,0,0.1,0,0.1,0.1c0,0.2,0,0.4-0.2,0.5
			c0,0.1,0,0.2-0.1,0.2l0,0l0,0c-0.1,0.1-0.1,0.2-0.1,0.2l0,0c0,0.1,0,0.1,0,0.2v0.1h-0.1c0,0-0.1,0-0.1-0.1V12L83.1,12
			C83.1,12.2,83.1,12.1,83.1,12z"/>
		<path class="st1" d="M94.7,21.3c-0.1,0-0.2,0-0.3,0c0-0.3,0-0.6,0.1-1c0-0.1,0.1-0.1,0.1-0.2c0,0,0.1-0.1,0.2-0.1s0.1,0.1,0.1,0.1
			v0.1c0,0.1,0,0.2,0,0.2C94.9,20.8,94.9,21,94.7,21.3z"/>
		<path class="st1" d="M87.8,17.1c-0.1-0.3-0.3-0.6-0.3-0.9c0.1-0.1,0.2-0.1,0.3,0c0.1,0.2,0.1,0.5,0.2,0.7c0.1,0.3,0.4,0.3,0.4,0.7
			c-0.1,0.1-0.1,0-0.2,0C88,17.5,87.8,17.3,87.8,17.1z"/>
		<path class="st1" d="M92,16.8L92,16.8c-0.1-0.2,0-0.3,0.1-0.3l0,0l0,0c0.1,0,0.1,0,0.2-0.1s0.2-0.2,0.3-0.2
			c0.2-0.2,0.2-0.6,0.7-0.5C92.9,16.2,92.7,16.7,92,16.8C92,17,92,16.9,92,16.8z"/>
		<path class="st1" d="M95.6,9.4c0.3-0.5,0.4-0.6,0.7-0.1c0,0.1,0,0.2,0,0.2l0,0c0,0.1,0,0.1,0,0.2l0,0c-0.1,0.1-0.2,0.2-0.2,0
			L96,9.6C96,9.4,95.6,9.7,95.6,9.4z"/>
		<path class="st1" d="M80.6,19c0.1,0,0.2,0,0.3,0c0.1,0.4,0.2,0.7,0.5,1v0.1h-0.1c-0.2,0-0.3-0.1-0.5-0.2
			C80.6,19.6,80.6,19.3,80.6,19z"/>
		<path class="st1" d="M83.4,11c0-0.4,0.2-0.7,0.4-1c0.1-0.1,0.1-0.2,0.2-0.1c0,0.3,0,0.6-0.2,0.9c0,0.1-0.1,0.1-0.1,0.2
			C83.6,11,83.5,11,83.4,11L83.4,11z"/>
		<path class="st1" d="M96.3,10.7c0,0.3,0,0.5-0.1,0.8h-0.1H96h-0.1c0-0.3,0-0.7,0.1-1c0.1-0.1,0.1-0.1,0.2,0l0,0
			C96.2,10.6,96.2,10.7,96.3,10.7z"/>
		<path class="st1" d="M103.6,13.7l-0.1-0.1c0-0.3,0.3-0.5,0.5-0.7c0.1,0,0.3-0.1,0.3,0.1v0.1c0,0.1-0.1,0.1-0.1,0.2
			c-0.1,0.1-0.1,0.1-0.2,0.2C103.8,13.6,103.7,13.7,103.6,13.7z"/>
		<path class="st1" d="M81.3,10.4c-0.1,0-0.2,0-0.3,0c0-0.3,0.1-0.6,0.2-1c0.1,0,0.2-0.1,0.3,0C81.4,9.7,81.4,10.1,81.3,10.4z"/>
		<path class="st1" d="M86.8,12.2c0.1-0.1,0.1-0.3,0.2-0.4c0,0,0,0,0.1,0s0.1,0,0.1,0c0.1,0.3-0.1,0.6-0.2,0.8c-0.1,0-0.1,0-0.2,0.1
			c0,0,0,0-0.1,0c0-0.1,0-0.1,0-0.2C86.7,12.4,86.7,12.3,86.8,12.2z"/>
		<path class="st1" d="M104.8,11.5c0.2-0.3,0.2-0.6,0.5-0.8h0.1c0.1,0,0.1,0,0.1,0.1s0,0.2-0.1,0.3s-0.2,0.2-0.2,0.4
			c0,0.1,0,0.1-0.1,0.1H105C104.9,11.6,104.9,11.6,104.8,11.5C104.7,11.6,104.7,11.5,104.8,11.5z"/>
		<path class="st1" d="M94.8,11.3c-0.1-0.3,0-0.5,0.2-0.7c0.1,0,0.2,0.1,0.2,0.2c-0.1,0.2,0,0.5-0.2,0.7h-0.1L94.8,11.3
			C94.9,11.4,94.9,11.4,94.8,11.3C94.9,11.3,94.8,11.3,94.8,11.3z"/>
		<path class="st1" d="M105.9,10c0,0.2-0.1,0.4-0.2,0.6c-0.1,0-0.2,0.2-0.3,0.2h-0.1c0.1-0.3,0.2-0.6,0.4-0.9L105.9,10
			C105.8,9.9,105.8,9.9,105.9,10z"/>
		<path class="st1" d="M93.3,15.8c-0.4,0-0.4,0.3-0.7,0.5c0.1-0.5,0.6-0.7,0.7-1.1c0.1,0,0.2,0.1,0.2,0.2c0,0.1-0.1,0.2-0.2,0.3
			C93.4,15.7,93.3,15.7,93.3,15.8z"/>
		<path class="st1" d="M85.7,10.7c0.1-0.2,0.1-0.4,0.2-0.6H86h0.1h0.1c0.1,0.2-0.1,0.5-0.1,0.7c0,0,0,0.1-0.1,0.1s-0.1,0-0.2,0
			C85.7,10.8,85.7,10.8,85.7,10.7z"/>
		<path class="st1" d="M83,17.1c0.3,0,0.4,0.3,0.7,0.5c0,0.1,0,0.1,0,0.1h-0.1C83.2,17.5,83,17.4,83,17.1z"/>
		<path class="st1" d="M84.6,8.4c0.1,0.1,0,0.2,0.1,0.3c-0.2,0.2-0.4,0.4-0.5,0.6c-0.1,0-0.2,0.1-0.2,0C84.1,8.9,84.4,8.7,84.6,8.4z
			"/>
		<path class="st1" d="M80.7,13.7c0.1,0,0.2,0,0.2,0c0.1,0.2,0,0.5-0.1,0.7c-0.1,0-0.2,0.1-0.2,0C80.6,14.2,80.7,14,80.7,13.7z"/>
		<path class="st1" d="M96.2,10.5c-0.1,0-0.1,0-0.2,0c0-0.3-0.1-0.5,0-0.8c0.1,0,0.2,0,0.2,0C96.4,10,96.3,10.2,96.2,10.5z"/>
		<path class="st1" d="M85.3,16.6L85.3,16.6c0-0.3,0.1-0.4,0.2-0.6c0.1-0.1,0.1-0.1,0.1-0.2l0,0c0.1-0.2,0.2-0.3,0.3-0.1l0,0
			c0,0.1,0,0.1,0,0.2c0,0.1-0.1,0.1-0.2,0.2c0,0.1,0,0.2-0.1,0.2c0,0.1-0.1,0.1-0.1,0.2S85.4,16.7,85.3,16.6z"/>
		<path class="st1" d="M93.6,14.6c0-0.3,0.1-0.5,0.3-0.7c0.1,0,0.1-0.1,0.2-0.1h0.1c0,0.2-0.1,0.5-0.2,0.6
			C93.8,14.5,93.8,14.6,93.6,14.6C93.7,14.6,93.6,14.6,93.6,14.6z"/>
		<path class="st1" d="M95.7,9.7c0,0.3-0.2,0.5-0.3,0.7c-0.1,0-0.2,0-0.1-0.1C95.3,10.1,95.4,9.9,95.7,9.7
			C95.5,9.6,95.6,9.6,95.7,9.7z"/>
		<path class="st1" d="M98,12.9c0.1,0.2,0.1,0.3,0.1,0.5c-0.1,0.1-0.2,0.1-0.3,0l0,0c0-0.1,0-0.2,0-0.2c-0.1-0.1-0.1-0.3,0-0.4
			c0-0.1,0.1-0.1,0.1-0.1C97.9,12.8,98,12.8,98,12.9z"/>
		<path class="st1" d="M97.7,10.9c0-0.3,0-0.5-0.1-0.8c0.1,0,0.2-0.2,0.3-0.1c0,0.3,0,0.5-0.1,0.7C97.8,10.9,97.8,11,97.7,10.9z"/>
		<path class="st1" d="M93.9,13.9c0-0.1,0.1-0.2,0.1-0.4c0-0.1,0-0.1,0-0.2c0.1-0.1,0.1-0.2,0.2-0.2s0.1,0,0.2,0.1
			c0,0.3-0.2,0.4-0.2,0.6h-0.1C94.1,13.9,94,13.9,93.9,13.9z"/>
		<path class="st1" d="M93.5,15.3c-0.1-0.1-0.1-0.1-0.2-0.2c0.1-0.2,0.2-0.3,0.3-0.5h0.1c0.1,0,0.1,0,0.1,0.1
			c0.1,0.2-0.1,0.4-0.1,0.6C93.6,15.3,93.6,15.4,93.5,15.3z"/>
		<path class="st1" d="M83,14.9c-0.1,0-0.2,0-0.3,0c-0.1-0.2,0-0.4,0-0.6h0.1h0.1H83C83,14.5,83,14.7,83,14.9z"/>
		<path class="st1" d="M107.1,9.1c-0.2,0-0.3,0.1-0.4,0.2c0-0.1,0-0.1,0-0.2c0-0.1,0-0.1,0-0.2c0-0.1,0-0.1,0.1-0.2
			c0-0.1,0.1-0.1,0.1-0.2c0,0,0,0,0.1-0.1h0.1h0.1h0.1h0.1C107.3,8.8,107.2,8.9,107.1,9.1z"/>
		<path class="st1" d="M87.5,14.7c-0.1-0.2,0-0.5,0.1-0.7h0.1h0.1h0.1c0.1,0.2,0.1,0.4,0,0.7c0,0,0,0-0.1,0
			C87.6,14.8,87.6,14.8,87.5,14.7L87.5,14.7z"/>
		<path class="st1" d="M86.8,13.1c0,0.2,0,0.4-0.2,0.6c-0.1-0.1-0.1,0-0.2,0c0-0.2,0-0.4,0.1-0.5C86.6,13.1,86.7,13,86.8,13.1z"/>
		<path class="st1" d="M80.7,14.4c0.1,0,0.2,0,0.2,0c0,0.1,0,0.1,0,0.2c0,0.1,0,0.2,0,0.3c0,0,0,0-0.1,0s-0.1,0-0.2,0
			C80.5,14.7,80.6,14.6,80.7,14.4z"/>
		<path class="st1" d="M86.4,14.6c-0.1,0.2-0.2,0.4-0.3,0.7H86c0,0,0,0-0.1,0c0-0.1,0-0.2,0.1-0.3s0.1-0.1,0.1-0.2
			c0,0,0-0.1,0.1-0.1C86.2,14.6,86.3,14.5,86.4,14.6z"/>
		<path class="st1" d="M87.8,16.2c-0.1,0-0.2,0-0.3,0c-0.1-0.1-0.1-0.3,0-0.4c0-0.1,0.1-0.1,0.1-0.1c0.1,0,0.1,0.1,0.2,0.1
			C87.8,15.9,87.8,16,87.8,16.2z"/>
		<path class="st1" d="M98,11.8c0,0.1,0,0.3,0,0.4c-0.1,0-0.1,0-0.2,0c-0.1-0.2-0.1-0.5-0.1-0.7h0.1c0.1,0,0.1,0.1,0.1,0.1
			C97.9,11.7,98,11.8,98,11.8z"/>
		<path class="st1" d="M94.3,12.9c0-0.1,0.1-0.2,0.1-0.3l0.1-0.1c0.1,0,0.1,0,0.2,0c0,0.2-0.2,0.4-0.2,0.6
			C94.4,13.1,94.4,13.1,94.3,12.9L94.3,12.9z"/>
		<path class="st1" d="M87.4,15.4c0-0.2-0.1-0.5,0-0.7h0.1h0.1h0.1c0,0.2,0,0.4-0.1,0.5C87.6,15.3,87.5,15.4,87.4,15.4z"/>
		<path class="st1" d="M94.8,20.1l-0.1,0.1c-0.1,0-0.1,0-0.1-0.1V20c0-0.1,0.1-0.1,0-0.2c0-0.1,0-0.2,0-0.2c0.1,0,0.2,0,0.3-0.1
			c0.1,0.2-0.1,0.4-0.1,0.5C95,20.1,94.9,20.1,94.8,20.1z"/>
		<path class="st1" d="M88.4,17.6c-0.1-0.2-0.4-0.4-0.4-0.7c0.2,0.2,0.3,0.4,0.6,0.5c0.1,0.1,0.1,0.1,0,0.2
			C88.5,17.6,88.4,17.6,88.4,17.6z"/>
		<path class="st1" d="M95.7,9.7c-0.1,0-0.1,0-0.2,0c0-0.2,0.1-0.2,0.2-0.3c0.1,0.1,0.5-0.2,0.4,0.2C95.9,9.6,95.8,9.7,95.7,9.7z"/>
		<path class="st1" d="M97.7,10.9c0.1,0,0.1-0.1,0.2-0.1c0.2,0.2,0.1,0.3,0.1,0.5c-0.1,0.1-0.2,0.1-0.2,0
			C97.7,11.2,97.7,11.1,97.7,10.9z"/>
		<path class="st1" d="M85.9,15.7c-0.1,0-0.2,0-0.3,0.1c-0.1-0.3,0.2-0.3,0.3-0.5H86c0.1,0,0.1,0,0.1,0.1
			C86.1,15.5,86,15.6,85.9,15.7z"/>
		<path class="st1" d="M115.3,18c0.2,0.1,0.4,0.3,0.5,0.4c0.1,0,0.1,0.1,0.2,0.1c0,0,0.1,0.1,0,0.2C115.7,18.6,115.4,18.4,115.3,18z
			"/>
		<path class="st1" d="M94.6,12.1c0.1-0.2,0.1-0.5,0.3-0.6c0.1,0,0.1,0,0.2,0.1c0,0.1-0.1,0.3-0.2,0.4
			C94.8,12.1,94.7,12.2,94.6,12.1z"/>
		<path class="st1" d="M92.9,6.7C93,6.8,93.1,6.9,93.1,7c-0.2,0-0.4,0-0.5-0.1c-0.2-0.2-0.1-0.3,0.1-0.3C92.8,6.6,92.9,6.6,92.9,6.7
			z"/>
		<path class="st1" d="M84,9.9c-0.1,0-0.2,0.1-0.2,0.1c0-0.2,0-0.4,0.2-0.6c0.1,0,0.1,0,0.1,0.1C84.1,9.7,84.1,9.8,84,9.9z"/>
		<path class="st1" d="M85.7,10.7l0.1,0.1h0.1l0.1-0.1h0.1c0,0.2,0,0.4-0.2,0.6C85.6,11.1,85.6,10.9,85.7,10.7z"/>
		<path class="st1" d="M97.8,9.3c-0.2-0.2-0.1-0.3-0.1-0.5c0.1,0,0.2,0,0.2,0.1C98,9,98,9.2,97.8,9.3C97.9,9.4,97.8,9.4,97.8,9.3z"
			/>
		<path class="st1" d="M102.4,7.8c0.3,0.1,0.5,0.2,0.5,0.5C102.7,8.1,102.5,8,102.4,7.8z"/>
		<path class="st1" d="M97.7,8.1c-0.1-0.1,0-0.3,0-0.4c0.1,0,0.1,0,0.2,0H98c0.1,0.1,0,0.3,0,0.4C97.9,8.2,97.8,8.2,97.7,8.1z"/>
		<path class="st1" d="M104.2,13.1c-0.1,0-0.2-0.1-0.3-0.1c0.1-0.1,0.1-0.1,0.2-0.2c0.1,0,0.2-0.1,0.3-0.1
			C104.4,12.8,104.3,13,104.2,13.1z"/>
		<path class="st1" d="M114.7,16.6c0.1,0.2,0.1,0.3,0.1,0.5C114.6,17,114.5,16.9,114.7,16.6z"/>
		<path class="st1" d="M87.6,11.8c0.1,0,0.2,0,0.2-0.1c0,0.2,0,0.3-0.1,0.5c-0.1,0-0.1,0-0.2,0C87.6,12.1,87.6,12,87.6,11.8z"/>
		<path class="st1" d="M88.5,17.6c0-0.1,0-0.1,0-0.2c0.1,0,0.3-0.2,0.4,0C88.9,17.5,88.7,17.6,88.5,17.6z"/>
		<path class="st1" d="M94.6,12.1c0.1,0,0.2-0.1,0.2-0.1c0.1,0.2-0.1,0.3-0.1,0.5c0,0-0.1,0-0.1,0.1c-0.1-0.1-0.1-0.2-0.1-0.3
			S94.5,12.2,94.6,12.1z"/>
		<path class="st1" d="M87.8,13.1c0.1,0.2,0,0.4-0.1,0.6h-0.1l-0.1-0.1c-0.1-0.1,0-0.3,0-0.4C87.7,13.1,87.7,13.1,87.8,13.1z"/>
		<path class="st1" d="M91.8,16.6c-0.3,0-0.5-0.2-0.5-0.5C91.4,16.3,91.6,16.5,91.8,16.6z"/>
		<path class="st1" d="M80.7,12.2c0.1,0.2,0.1,0.4,0,0.6C80.4,12.6,80.6,12.4,80.7,12.2z"/>
		<path class="st1" d="M87.8,12.4c0,0.1,0.1,0.3,0,0.4h-0.1h-0.1c-0.1-0.2-0.1-0.3,0-0.5h0.1C87.7,12.4,87.7,12.4,87.8,12.4
			L87.8,12.4z"/>
		<path class="st1" d="M87.7,13.6c0,0.1,0,0.3,0,0.4c0,0,0,0-0.1,0l0,0h-0.1c0-0.1-0.1-0.3,0-0.4H87.7L87.7,13.6
			C87.7,13.7,87.7,13.7,87.7,13.6z"/>
		<path class="st1" d="M86.2,14.3c0-0.1,0-0.3,0.1-0.4c0-0.1,0.1-0.2,0.2-0.2c0,0.2-0.1,0.4-0.1,0.5C86.4,14.4,86.3,14.4,86.2,14.3z
			"/>
		<path class="st1" d="M97.8,13.4c0.1,0,0.2,0,0.3,0c0.1,0.1,0.1,0.3,0,0.5l0,0H98h-0.1h-0.1C97.8,13.7,97.8,13.6,97.8,13.4z"/>
		<path class="st1" d="M80.8,19.9c0.2-0.1,0.3,0.1,0.5,0.2C81,20.2,80.8,20.2,80.8,19.9z"/>
		<path class="st1" d="M87.4,15.4c0.1-0.1,0.2-0.1,0.2-0.2c0,0.1,0.1,0.1,0.1,0.2c0,0.1,0,0.2-0.1,0.2s-0.1,0.1-0.2,0.1
			C87.4,15.7,87.4,15.5,87.4,15.4z"/>
		<path class="st1" d="M86.8,13.1c-0.1,0-0.2,0-0.2,0c0.1-0.2,0.1-0.3,0.2-0.5h0.1c0.1,0,0.1,0,0.1,0.1C86.9,12.9,86.8,13,86.8,13.1
			z"/>
		<path class="st1" d="M106.6,8.3c-0.1,0-0.2,0-0.2,0c0-0.1,0-0.3,0.1-0.3c0.1,0.1,0.2,0,0.3,0c0.1,0,0.1,0.1,0.1,0.1
			c0,0.1,0,0.1-0.1,0.2C106.7,8.3,106.6,8.4,106.6,8.3z"/>
		<path class="st1" d="M86.2,14.3c0.1,0,0.1,0,0.2,0c0,0.1,0,0.2-0.1,0.3c-0.1,0-0.2,0-0.3,0C86.1,14.5,86.2,14.4,86.2,14.3z"/>
		<path class="st1" d="M84.4,17.7c0.1-0.2,0.3-0.4,0.5-0.4C84.8,17.5,84.6,17.6,84.4,17.7z"/>
		<path class="st1" d="M94.6,7.1c0.2,0,0.3,0,0.3,0.2c0,0.1-0.2,0.1-0.3,0C94.6,7.3,94.6,7.2,94.6,7.1z"/>
		<path class="st1" d="M95.2,10.3l0.1,0.1c0,0.1,0,0.3-0.1,0.4c-0.1-0.1-0.1-0.1-0.2-0.2C95.1,10.5,95,10.4,95.2,10.3z"/>
		<path class="st1" d="M87.8,17.1c0.1,0.1,0.3,0.3,0.4,0.4C87.9,17.5,87.8,17.4,87.8,17.1z"/>
		<path class="st1" d="M97.9,9.3c0.1,0.1,0.1,0.2,0,0.3h-0.1h-0.1h-0.1c-0.1-0.1,0-0.2,0-0.3C97.8,9.3,97.9,9.3,97.9,9.3z"/>
		<path class="st1" d="M97.9,9.7c0,0.1,0,0.2-0.1,0.3c-0.1,0-0.1,0-0.1-0.1s0-0.2,0-0.2H97.9C97.8,9.6,97.9,9.6,97.9,9.7L97.9,9.7z"
			/>
		<path class="st1" d="M97.7,9.9l0.1,0.1l0.1,0.1c-0.1,0.1-0.2,0.1-0.3,0.1C97.7,10.1,97.7,10,97.7,9.9z"/>
		<path class="st1" d="M94.4,7.1c-0.1-0.1-0.2-0.2-0.1-0.3c0.1,0,0.2,0.1,0.3,0.1L94.4,7.1C94.5,7.1,94.5,7.2,94.4,7.1
			C94.4,7.2,94.4,7.2,94.4,7.1z"/>
		<path class="st1" d="M98,12.5c0.1,0.1,0,0.1,0,0.2c0,0.1,0,0.1-0.1,0.1h-0.1c-0.1,0-0.1,0-0.1,0.1c0-0.1-0.1-0.2,0-0.4
			C97.8,12.4,97.9,12.4,98,12.5C98,12.4,98,12.4,98,12.5z"/>
		<path class="st1" d="M97.7,11.4c0.1,0,0.2,0,0.2,0c0,0.1,0,0.2,0,0.2h-0.1h-0.1h-0.1C97.6,11.5,97.7,11.4,97.7,11.4z"/>
		<path class="st1" d="M94.5,12.3c0,0.1,0.1,0.2,0.1,0.3c-0.1,0.1-0.1,0-0.2,0C94.4,12.4,94.4,12.3,94.5,12.3z"/>
		<path class="st1" d="M80.6,14.9c0.1,0,0.1,0,0.2,0c0,0.1,0,0.1,0,0.2c-0.1,0-0.1,0-0.2,0C80.6,15.1,80.6,15,80.6,14.9z"/>
		<path class="st1" d="M86.1,9.7c0.1,0.1,0.1,0.2,0.1,0.3h-0.1H86h-0.1C85.8,9.9,85.9,9.8,86.1,9.7C86,9.7,86,9.7,86.1,9.7z"/>
		<path class="st1" d="M87.6,12.2c0.1,0,0.1,0,0.2,0c0,0.1,0.1,0.1,0,0.2h-0.1h-0.1h-0.1C87.5,12.3,87.5,12.3,87.6,12.2z"/>
		<path class="st1" d="M105.1,11.6c0-0.2,0.1-0.3,0.3-0.4c-0.1,0.1-0.1,0.2-0.2,0.4C105.2,11.6,105.1,11.6,105.1,11.6z"/>
		<path class="st1" d="M86.6,13.7c-0.1,0.1-0.1,0.1-0.2,0.2c-0.1-0.1,0-0.2,0-0.2C86.5,13.6,86.6,13.6,86.6,13.7L86.6,13.7
			L86.6,13.7z"/>
		<path class="st1" d="M97.9,8.9c-0.1,0-0.1-0.1-0.2-0.1c0-0.1,0-0.1,0-0.2l0,0h0.1l0,0C97.9,8.7,97.9,8.8,97.9,8.9z"/>
		<path class="st1" d="M98,8.4c0,0.1,0,0.1,0,0.2h-0.1h-0.1h-0.1c-0.1-0.1,0-0.2,0-0.3C97.8,8.2,97.9,8.2,98,8.4z"/>
		<path class="st1" d="M105.3,10.7c0.1-0.1,0.1-0.3,0.3-0.2c-0.1,0.1-0.1,0.2-0.2,0.3C105.4,10.8,105.4,10.8,105.3,10.7z"/>
		<path class="st1" d="M98,8.4c-0.1,0-0.2-0.1-0.2-0.1c0-0.1,0-0.1,0-0.2c0.1,0,0.2,0,0.2,0C98,8.2,98,8.3,98,8.4z"/>
		<path class="st1" d="M115.6,17.8c-0.1-0.1-0.3-0.2-0.2-0.4C115.5,17.5,115.6,17.7,115.6,17.8z"/>
		<path class="st1" d="M116.1,18.6c0.2,0,0.2,0.1,0.2,0.2c-0.1,0.1-0.2,0-0.2-0.1C116.1,18.7,116.1,18.7,116.1,18.6
			C116,18.6,116.1,18.6,116.1,18.6z"/>
		<path class="st1" d="M106.8,9c0,0.1-0.1,0.1-0.1,0.2c-0.1-0.1-0.2-0.2-0.3-0.3l0.1-0.1C106.7,8.7,106.8,8.8,106.8,9z"/>
		<path class="st1" d="M93.5,15.3c0,0,0.1,0,0.1-0.1c0.1,0.2-0.1,0.3-0.2,0.4C93.3,15.5,93.5,15.4,93.5,15.3z"/>
		<path class="st1" d="M97.7,12.2c0.1,0,0.1,0,0.2,0c0,0.1,0.1,0.1,0,0.2h-0.1L97.7,12.2L97.7,12.2C97.7,12.3,97.7,12.3,97.7,12.2z"
			/>
		<path class="st1" d="M82.2,4.5c-0.1-0.1,0-0.2,0.1-0.3C82.4,4.3,82.3,4.4,82.2,4.5z"/>
		<path class="st1" d="M104.8,11.5L104.8,11.5c0.1,0.2,0,0.3-0.1,0.3h-0.1c-0.1,0-0.1,0-0.1-0.1C104.6,11.6,104.7,11.5,104.8,11.5z"
			/>
		<path class="st1" d="M95,11.6c-0.1,0-0.1-0.1-0.2-0.1c0-0.1,0-0.1,0-0.2h0.1l0,0C94.9,11.4,95,11.5,95,11.6
			C95,11.5,95,11.6,95,11.6L95,11.6z"/>
		<path class="st1" d="M81.8,4.7c0.1,0.1,0,0.2-0.1,0.3C81.6,4.9,81.7,4.8,81.8,4.7z"/>
		<path class="st1" d="M104.5,11.7c0,0,0,0.1,0.1,0.1c-0.1,0.1-0.1,0.2-0.2,0.3C104.3,11.9,104.4,11.8,104.5,11.7z"/>
		<path class="st1" d="M107.3,12.6c-0.2,0.1-0.3-0.1-0.3-0.2C107.2,12.4,107.3,12.5,107.3,12.6z"/>
		<path class="st1" d="M98.2,14.2c-0.1-0.1-0.1-0.1-0.2-0.2v-0.1h0.1c0,0,0,0,0.1,0C98.2,14,98.2,14,98.2,14.2z"/>
		<path class="st1" d="M82.2,3.4c0,0.1,0,0.2-0.1,0.3C82.1,3.6,82.1,3.5,82.2,3.4z"/>
		<path class="st1" d="M95.8,11.6c0.1,0.1,0,0.3-0.1,0.4C95.7,11.8,95.7,11.7,95.8,11.6z"/>
		<path class="st1" d="M92.1,16.6c-0.1,0.1-0.1,0.1-0.2,0.2l-0.1-0.1C91.9,16.6,92,16.5,92.1,16.6z"/>
		<path class="st1" d="M87.2,11.8C87.1,11.8,87.1,11.8,87.2,11.8c0-0.1,0-0.1,0.1-0.1L87.2,11.8z"/>
		<path class="st1" d="M105.1,11.6l0.1-0.1c0.1,0.1,0,0.2-0.1,0.3l0,0l0,0C105,11.7,105.1,11.6,105.1,11.6z"/>
		<path class="st1" d="M82.4,3.8c0-0.1,0-0.2,0.1-0.3C82.6,3.7,82.5,3.7,82.4,3.8z"/>
		<path class="st1" d="M107,9.9c0-0.1,0-0.2,0.1-0.3C107.2,9.7,107.1,9.8,107,9.9z"/>
		<path class="st1" d="M116.1,18.6c0,0.1-0.1,0.1-0.1,0.1c-0.1-0.1-0.1-0.1-0.2-0.2c0,0,0-0.1,0.1-0.1S116.1,18.5,116.1,18.6z"/>
		<path class="st1" d="M87.7,15.6c0-0.1,0.1-0.1,0.1-0.2c0.1,0.1,0.1,0.2,0,0.3L87.7,15.6L87.7,15.6z"/>
		<path class="st1" d="M94.2,24.8c-0.1-0.1,0-0.2,0.1-0.3C94.4,24.6,94.3,24.7,94.2,24.8z"/>
		<path class="st1" d="M106.9,7c-0.1,0.1-0.1,0.1-0.2,0.2C106.7,7.1,106.7,7,106.9,7z"/>
		<path class="st1" d="M85.3,16.6c0.1,0,0.1-0.1,0.2-0.1c0,0.2-0.1,0.2-0.2,0.3C85.3,16.8,85.3,16.7,85.3,16.6z"/>
		<path class="st1" d="M83.5,11c0.1-0.1,0.1-0.1,0.2-0.2c0,0.1,0,0.2-0.1,0.3C83.7,11,83.6,11,83.5,11C83.6,11,83.6,11,83.5,11z"/>
		<path class="st1" d="M93.9,13.9c0.1,0,0.1,0,0.2,0C94.1,13.9,94,14,93.9,13.9L93.9,13.9z"/>
		<path class="st1" d="M81.4,9.4c-0.1,0-0.2,0-0.3,0V9.3C81.3,9.3,81.4,9.3,81.4,9.4C81.5,9.3,81.5,9.4,81.4,9.4z"/>
		<path class="st1" d="M115.8,18.2c-0.1-0.1-0.2-0.2-0.2-0.3C115.7,17.9,115.8,18,115.8,18.2z"/>
		<path class="st1" d="M90.9,11.8c0-0.1-0.1-0.1-0.1-0.2c0.1-0.1,0.1-0.1,0.2-0.2C91,11.6,90.9,11.7,90.9,11.8z"/>
		<path class="st1" d="M93.8,14.7C93.8,14.7,93.7,14.7,93.8,14.7c-0.1-0.2,0-0.3,0.2-0.2C93.9,14.6,93.8,14.6,93.8,14.7z"/>
		<path class="st1" d="M103.6,13.7c0.1-0.1,0.2-0.1,0.3-0.2c0.1,0.2-0.1,0.2-0.2,0.3C103.6,13.8,103.6,13.8,103.6,13.7z"/>
		<path class="st1" d="M87.8,13.1c-0.1,0.1-0.1,0.1-0.2,0c0-0.1,0-0.1,0-0.2h0.1C87.7,12.9,87.7,12.9,87.8,13.1
			C87.8,13,87.8,13,87.8,13.1z"/>
		<path class="st1" d="M84.1,9.6L84,9.5c0-0.1,0-0.2,0-0.2c0.1,0,0.1,0,0.2,0C84.2,9.4,84.1,9.5,84.1,9.6z"/>
		<path class="st1" d="M94.4,7.1L94.4,7.1h0.2c0,0.1,0.1,0.2,0,0.3h-0.1l0,0C94.5,7.3,94.4,7.2,94.4,7.1z"/>
		<path class="st1" d="M83.5,17.6l0.1-0.1c0.1,0.1,0.1,0.1,0.2,0.2C83.7,17.8,83.6,17.7,83.5,17.6z"/>
		<path class="st1" d="M94.8,20.1l0.1-0.1C95,20.1,95,20.1,94.8,20.1C94.9,20.2,94.9,20.1,94.8,20.1z"/>
		<path class="st1" d="M86.9,12.7L86.9,12.7L86.9,12.7c0-0.1,0-0.1,0.1-0.1C87,12.7,86.9,12.7,86.9,12.7z"/>
		<path class="st1" d="M94.7,19.8c0.1,0.1,0,0.2,0,0.2C94.7,19.9,94.7,19.9,94.7,19.8z"/>
		<path class="st1" d="M91.7,17c0.1,0,0.1,0,0.2,0C91.8,17,91.8,17,91.7,17z"/>
		<path class="st1" d="M94.7,19.4c0,0.1,0,0.1,0,0.2C94.7,19.5,94.7,19.4,94.7,19.4z"/>
		<path class="st1" d="M87.8,13L87.8,13C87.7,12.9,87.7,12.9,87.8,13c0-0.1,0-0.1,0.1-0.1C87.8,12.9,87.8,12.9,87.8,13z"/>
		<path class="st1" d="M92,16.8C92.1,16.9,92.1,16.9,92,16.8c0,0.1,0,0.1-0.1,0.1C92,16.9,92,16.9,92,16.8z"/>
		<path class="st1" d="M94.8,20.5c0-0.1,0-0.2,0-0.2C94.9,20.4,94.9,20.5,94.8,20.5z"/>
		<path class="st1" d="M94.6,20.1C94.7,20.1,94.7,20.2,94.6,20.1c0,0.1,0,0.2-0.1,0.2C94.6,20.3,94.6,20.2,94.6,20.1z"/>
		<path class="st1" d="M86.8,12.2c0,0.1,0,0.2-0.1,0.3C86.7,12.4,86.7,12.3,86.8,12.2z"/>
		<path class="st1" d="M82.6,3c0-0.1,0-0.2,0.1-0.2C82.7,2.8,82.7,2.9,82.6,3z"/>
		<path class="st1" d="M90.9,11.1c-0.1-0.1-0.1-0.1,0-0.2C90.9,11,90.9,11.1,90.9,11.1z"/>
		<path class="st1" d="M90.9,11.4v-0.1C91,11.3,91,11.4,90.9,11.4z"/>
		<path class="st1" d="M82.5,3.5c-0.1-0.1,0-0.1,0-0.2C82.6,3.4,82.6,3.4,82.5,3.5z"/>
		<path class="st1" d="M82.6,3.3c-0.1-0.1,0-0.2,0-0.2S82.6,3.2,82.6,3.3z"/>
		<path class="st1" d="M82.3,2.8c0.1,0.1,0,0.2,0,0.3C82.2,3,82.3,2.9,82.3,2.8z"/>
		<path class="st1" d="M95.6,15.7c0-0.1,0-0.2,0-0.2S95.7,15.6,95.6,15.7z"/>
		<path class="st1" d="M86,8.7l-0.1-0.1c0,0,0-0.1,0.1-0.1C86.1,8.5,86.1,8.6,86,8.7z"/>
		<path class="st1" d="M95.3,18c-0.1-0.1-0.1-0.2,0-0.3C95.3,17.8,95.3,17.9,95.3,18z"/>
		<path class="st1" d="M95,19.4c0-0.1,0-0.1,0-0.2C95.1,19.3,95.1,19.4,95,19.4z"/>
		<path class="st1" d="M92.3,16.5c0,0.1-0.1,0.1-0.2,0.1C92.2,16.5,92.3,16.4,92.3,16.5z"/>
		<path class="st1" d="M82,6.4c0-0.1,0-0.2,0-0.3C82.1,6.2,82.1,6.3,82,6.4z"/>
		<path class="st1" d="M95,19.2c-0.1-0.1,0-0.2,0.1-0.3C95.1,19.1,95.1,19.1,95,19.2z"/>
		<path class="st1" d="M82,6c-0.1-0.1,0-0.2,0.1-0.3C82.1,5.8,82.1,6,82,6z"/>
		<path class="st1" d="M90.5,11.3c0,0.1,0,0.1,0,0.2C90.5,11.4,90.5,11.3,90.5,11.3z"/>
		<path class="st1" d="M90.7,11.7c0,0.1-0.1,0.1-0.1,0.2c0-0.1,0-0.2,0-0.3C90.6,11.6,90.7,11.6,90.7,11.7z"/>
		<path class="st1" d="M90.9,12.2c0-0.1,0-0.2,0-0.3C91,12,91,12.1,90.9,12.2z"/>
		<path class="st1" d="M82.2,4c0.1,0,0.1-0.1,0.2-0.1c0,0.1,0,0.2,0,0.2L82.2,4L82.2,4z"/>
		<path class="st1" d="M82.1,3.7c0,0.1,0,0.2-0.1,0.2C82,3.9,82.1,3.8,82.1,3.7z"/>
		<path class="st1" d="M80.9,15.9c-0.1-0.1-0.1-0.1,0-0.2C81,15.7,81,15.8,80.9,15.9z"/>
		<path class="st1" d="M82.8,16.6c0.1,0,0.1,0.1,0,0.2C82.8,16.7,82.8,16.6,82.8,16.6z"/>
		<path class="st1" d="M80.9,14.9c0-0.1-0.1-0.2,0-0.3C81,14.7,81,14.8,80.9,14.9z"/>
		<path class="st1" d="M80.5,16.2c0.1,0,0.1,0.1,0,0.1c0,0,0,0-0.1,0C80.5,16.3,80.5,16.2,80.5,16.2z"/>
		<path class="st1" d="M81,13.4c0-0.1,0-0.2,0.1-0.2C81.1,13.3,81.1,13.4,81,13.4z"/>
		<path class="st1" d="M80.8,13c0.1,0.1,0.1,0.2,0,0.3C80.7,13.1,80.7,13.1,80.8,13z"/>
		<path class="st1" d="M93.6,25.5c0,0.1,0,0.2,0,0.2C93.5,25.6,93.5,25.5,93.6,25.5z"/>
		<path class="st1" d="M81.1,13c-0.1-0.1-0.1-0.2,0-0.2h0.1L81.1,13C81.1,12.9,81.1,12.9,81.1,13z"/>
		<path class="st1" d="M81.1,12.9C81.1,12.8,81.1,12.8,81.1,12.9c-0.1-0.1,0-0.2,0-0.2C81.2,12.7,81.2,12.8,81.1,12.9z"/>
		<path class="st1" d="M80.7,13.3c0,0.1,0,0.1,0,0.2C80.7,13.4,80.7,13.4,80.7,13.3z"/>
		<path class="st1" d="M80.4,13.1L80.4,13.1L80.4,13.1L80.4,13.1L80.4,13.1z"/>
		<path class="st1" d="M82.7,14.9c0.1,0.1,0,0.2,0,0.3C82.7,15.1,82.7,15,82.7,14.9z"/>
		<path class="st1" d="M83.4,12.3c0-0.1,0-0.1,0-0.2C83.4,12.2,83.4,12.3,83.4,12.3z"/>
		<path class="st1" d="M83.4,12.1c0-0.1,0-0.2,0.1-0.2C83.5,12,83.5,12,83.4,12.1z"/>
		<path class="st1" d="M83.2,11.7c0,0.1,0,0.2-0.1,0.2C83.2,11.8,83.2,11.8,83.2,11.7z"/>
		<path class="st1" d="M83.5,11.8c0-0.1,0-0.2,0.1-0.2C83.5,11.6,83.5,11.7,83.5,11.8z"/>
		<path class="st1" d="M94.7,21.5c0-0.1,0-0.2,0-0.2C94.8,21.4,94.8,21.4,94.7,21.5z"/>
		<path class="st1" d="M87.7,13.7L87.7,13.7c-0.1-0.1-0.1-0.1-0.1-0.2C87.6,13.6,87.6,13.6,87.7,13.7z"/>
		<path class="st1" d="M81.6,8.8c0-0.1,0-0.2,0-0.3C81.6,8.6,81.7,8.7,81.6,8.8z"/>
		<path class="st1" d="M85.6,15.8c0,0.1,0,0.2-0.1,0.2C85.5,15.9,85.5,15.9,85.6,15.8z"/>
		<path class="st1" d="M81.3,11.7c-0.1-0.1-0.1-0.2,0-0.3C81.3,11.5,81.3,11.6,81.3,11.7z"/>
		<path class="st1" d="M85.9,15.9c0-0.1,0-0.2,0-0.2C86,15.8,85.9,15.8,85.9,15.9z"/>
		<path class="st1" d="M81.3,11.3c-0.1-0.1-0.1-0.2,0-0.3C81.3,11.1,81.3,11.2,81.3,11.3z"/>
		<path class="st1" d="M80.7,11.9c0.1,0.1,0.1,0.2,0,0.3C80.6,12.1,80.6,12,80.7,11.9z"/>
		<path class="st1" d="M94,25.3c0-0.1,0-0.1,0.1-0.2C94.1,25.2,94.1,25.3,94,25.3z"/>
		<path class="st1" d="M94.1,25.2c0-0.1,0-0.2,0-0.3C94.2,25,94.2,25.1,94.1,25.2z"/>
		<path class="st1" d="M85.7,16.3c0-0.1,0-0.2,0.1-0.2C85.7,16.2,85.7,16.3,85.7,16.3z"/>
		<path class="st1" d="M83.1,12.2l0.1,0.1c0,0,0,0.1-0.1,0.1H83C83.1,12.4,83.1,12.3,83.1,12.2z"/>
		<path class="st1" d="M83.1,12c0,0.1,0,0.1,0,0.2C83,12.1,83,12.1,83.1,12z"/>
		<path class="st1" d="M94.5,23.5c0-0.1,0-0.2,0-0.3C94.6,23.3,94.5,23.4,94.5,23.5z"/>
		<path class="st1" d="M86,14.7c0,0.1,0,0.2-0.1,0.2C85.9,14.8,85.9,14.8,86,14.7z"/>
		<path class="st1" d="M86,15.4L86,15.4l-0.1-0.1C86,15.2,86,15.2,86,15.4C86.1,15.3,86.1,15.3,86,15.4z"/>
		<path class="st1" d="M106.6,7.5c0,0.1,0,0.2-0.1,0.3C106.5,7.6,106.5,7.6,106.6,7.5z"/>
		<path class="st1" d="M115,15.9c-0.1-0.1-0.1-0.1,0-0.2C115,15.7,115,15.8,115,15.9z"/>
		<path class="st1" d="M110.6,11.2c-0.1,0.1-0.1,0.1-0.2,0C110.4,11.2,110.5,11.2,110.6,11.2z"/>
		<path class="st1" d="M113.8,12.6c-0.1-0.1-0.1-0.2-0.1-0.3C113.8,12.4,113.8,12.5,113.8,12.6z"/>
		<path class="st1" d="M111.4,11c-0.1,0.1-0.2,0.1-0.2,0C111.3,11,111.4,11,111.4,11z"/>
		<path class="st1" d="M106.7,10c0,0.1,0,0.1,0,0.2C106.7,10.1,106.7,10,106.7,10z"/>
		<path class="st1" d="M106.7,9.8c0,0.1,0,0.1,0,0.2C106.6,9.9,106.6,9.8,106.7,9.8z"/>
		<path class="st1" d="M107,10c0-0.1,0-0.1,0-0.2C107,9.9,107,10,107,10z"/>
		<path class="st1" d="M106.7,9.6c0,0.1,0,0.1,0,0.2C106.6,9.7,106.6,9.6,106.7,9.6z"/>
		<path class="st1" d="M106.7,9.3c0,0.1,0,0.1,0,0.2C106.6,9.5,106.6,9.4,106.7,9.3z"/>
		<path class="st1" d="M108.3,12.4c-0.1,0.1-0.2,0.1-0.3,0.1C108.1,12.4,108.2,12.4,108.3,12.4z"/>
		<path class="st1" d="M105.9,10l-0.1-0.1h0.1C105.9,9.9,105.9,9.9,105.9,10z"/>
		<path class="st1" d="M107.1,9.5c0-0.1,0-0.1,0-0.2C107.1,9.4,107.1,9.5,107.1,9.5z"/>
		<path class="st1" d="M107.1,9.3c0-0.1,0-0.1,0-0.2C107.1,9.2,107.1,9.2,107.1,9.3z"/>
		<path class="st1" d="M97.9,12.7l0.1-0.1c0,0.1,0,0.2,0,0.3C98,12.8,97.9,12.8,97.9,12.7z"/>
		<path class="st1" d="M97.8,12.4l0.1,0.1h-0.1C97.7,12.4,97.7,12.4,97.8,12.4z"/>
		<path class="st1" d="M96.3,10.7c-0.1-0.1-0.1-0.1,0-0.2C96.3,10.6,96.3,10.6,96.3,10.7z"/>
		<path class="st1" d="M97.8,13.2c0.1,0.1,0.1,0.1,0,0.2C97.8,13.3,97.8,13.3,97.8,13.2z"/>
		<path class="st1" d="M96.3,9.7c-0.1-0.1-0.1-0.1,0-0.2C96.4,9.6,96.4,9.7,96.3,9.7z"/>
		<path class="st1" d="M96.3,9.5c-0.1-0.1-0.1-0.1,0-0.2C96.4,9.4,96.4,9.5,96.3,9.5z"/>
		<path class="st1" d="M94,7.1c0.1,0,0.2,0,0.2,0C94.1,7.2,94,7.2,94,7.1z"/>
		<path class="st1" d="M98,11.8l-0.1-0.1c0-0.1,0-0.1,0-0.1H98C98,11.7,98,11.7,98,11.8z"/>
		<path class="st1" d="M92.9,6.7L92.9,6.7C92.9,6.6,93,6.6,92.9,6.7L92.9,6.7z"/>
		<path class="st1" d="M94.4,12.9l0.1,0.1c0,0,0,0.1-0.1,0.1S94.3,13,94.2,13l0,0C94.3,13,94.3,13,94.4,12.9z"/>
		<path class="st1" d="M94.4,12.9L94.3,13C94.2,13,94.2,12.9,94.4,12.9C94.3,12.9,94.3,12.9,94.4,12.9z"/>
		<path class="st1" d="M94.1,13.3c0,0.1,0,0.1,0,0.2C94,13.4,94,13.4,94.1,13.3z"/>
		<path class="st1" d="M95.6,12.9c0,0.1,0,0.2,0,0.2C95.5,13,95.5,12.9,95.6,12.9z"/>
		<path class="st1" d="M103,10.6c0-0.1,0-0.2,0-0.3C103.1,10.4,103.1,10.5,103,10.6z"/>
		<path class="st1" d="M102.9,9.9c0,0.1,0,0.1,0,0.2C102.9,10,102.9,9.9,102.9,9.9z"/>
		<path class="st1" d="M99.8,6.7c-0.1,0-0.2,0-0.3,0C99.6,6.7,99.7,6.6,99.8,6.7z"/>
		<path class="st1" d="M103.2,10.1c0-0.1,0-0.1,0-0.2C103.3,10,103.3,10.1,103.2,10.1z"/>
		<path class="st1" d="M103.2,10c0-0.1,0-0.1,0-0.2C103.3,9.8,103.3,9.9,103.2,10z"/>
		<path class="st1" d="M103.3,9.7l-0.1-0.1l0.1-0.1C103.3,9.6,103.3,9.7,103.3,9.7z"/>
		<path class="st1" d="M97.9,6L97.9,6L97.9,6L97.9,6z"/>
		<path class="st1" d="M99,6.6c-0.1,0-0.2,0-0.3-0.1C98.9,6.5,99,6.6,99,6.6z"/>
		<path class="st1" d="M103.4,8.9c-0.1-0.1-0.1-0.2,0-0.2S103.5,8.8,103.4,8.9z"/>
		<path class="st1" d="M106.6,12.1c0.1,0.1,0.1,0.1,0,0.2C106.6,12.3,106.6,12.2,106.6,12.1z"/>
		<path class="st1" d="M102.4,13.4c-0.1,0-0.1,0.1-0.2,0.1c0-0.1,0-0.2,0-0.2C102.3,13.3,102.3,13.4,102.4,13.4z"/>
		<path class="st1" d="M102.5,13.5l-0.1-0.1l0.1-0.1C102.6,13.4,102.5,13.4,102.5,13.5z"/>
		<path class="st1" d="M102.2,13.1c0.1,0.1,0.1,0.2,0,0.2C102.2,13.2,102.2,13.2,102.2,13.1z"/>
		<path class="st1" d="M97.9,7.7c0,0.1-0.1,0.1-0.2,0C97.7,7.6,97.7,7.6,97.9,7.7C97.8,7.6,97.9,7.6,97.9,7.7z"/>
		<path class="st1" d="M104,13.4c0-0.1,0.1-0.1,0.1-0.2C104.2,13.3,104.2,13.4,104,13.4z"/>
		<path class="st1" d="M102.6,13.1V13V13.1L102.6,13.1z"/>
		<path class="st1" d="M102.2,12.7c0,0.1,0,0.2,0,0.2C102.2,12.8,102.2,12.7,102.2,12.7z"/>
		<path class="st1" d="M102.6,12.9v-0.1V12.9z"/>
		<path class="st1" d="M102.3,12.5c0,0.1,0,0.1,0,0.2C102.2,12.6,102.2,12.5,102.3,12.5z"/>
		<path class="st1" d="M102.6,12.7c0-0.1,0-0.1,0-0.2C102.6,12.6,102.6,12.7,102.6,12.7z"/>
		<path class="st1" d="M96,11.5L96,11.5L96,11.5L96,11.5z"/>
		<path class="st1" d="M106.6,8.3L106.6,8.3l0.2-0.1h0.1c0,0.1,0,0.2,0,0.2c0,0.1,0,0.1,0,0.2l0,0c0,0.1,0,0.1-0.1,0.1h-0.1
			c-0.1,0-0.2-0.1-0.2-0.2C106.6,8.5,106.6,8.4,106.6,8.3z"/>
		<path class="st1" d="M106.8,8.1L106.8,8.1C106.9,7.9,107,8,106.8,8.1C106.9,8.2,106.9,8.2,106.8,8.1
			C106.8,8.2,106.8,8.2,106.8,8.1z"/>
		<polygon class="st1" points="107.1,8.6 107.1,8.6 107.1,8.6 107.1,8.5 		"/>
		<path class="st1" d="M106.9,8.7c0-0.1,0-0.1,0-0.2C106.9,8.5,107,8.5,106.9,8.7C107,8.6,106.9,8.6,106.9,8.7z"/>
		<path class="st1" d="M82.9,14.3L82.9,14.3C82.9,14.2,82.9,14.2,82.9,14.3z"/>
		<path class="st1" d="M83.1,12.5C83.2,12.4,83.2,12.4,83.1,12.5L83.1,12.5C83.2,12.5,83.2,12.5,83.1,12.5z"/>
		<path class="st1" d="M98.4,3.2c0-0.1,0.1-0.1,0.2-0.1C98.6,3.1,98.6,3.3,98.4,3.2z"/>
		<path class="st1" d="M98.1,13.8c0,0,0,0.1-0.1,0.1L98.1,13.8L98.1,13.8C98,13.8,98,13.8,98.1,13.8z"/>
		<path class="st1" d="M106.6,8.6c0.1,0.1,0.1,0.1,0.2,0.2c0.1,0,0.1,0.1,0.1,0.1s0,0.1-0.1,0.1c-0.1-0.1-0.2-0.2-0.3-0.3
			C106.5,8.6,106.5,8.6,106.6,8.6z"/>
		<path class="st1" d="M104.7,11.8c0.1-0.1,0.1-0.2,0.2-0.2l0.1,0.1C104.9,11.8,104.8,11.8,104.7,11.8z"/>
		<path class="st1" d="M83.5,11C83.6,11,83.6,11,83.5,11v0.1V11L83.5,11z"/>
		<path class="st1" d="M94.9,11.3L94.9,11.3C94.9,11.3,94.9,11.2,94.9,11.3C95,11.3,95,11.3,94.9,11.3L94.9,11.3z"/>
		<path class="st1" d="M85.9,10.8C85.9,10.9,85.8,10.9,85.9,10.8L85.9,10.8z"/>
		<path class="st1" d="M86,10.1L86,10.1L86,10.1L86,10.1z"/>
		<g>
			<path class="st1" d="M69.6,10.6c0-0.8,0.3-1.5,0.5-2.3c0.1-0.1,0.2-0.1,0.3,0c-0.1,0.8-0.3,1.5-0.6,2.3
				C69.8,10.6,69.7,10.6,69.6,10.6L69.6,10.6z"/>
			<path class="st1" d="M72.5,22.3c0.1,0.1,0.2,0.1,0.3,0.2c0.2,0.1,0.1,0.2,0,0.3l0,0c-0.1,0-0.2-0.1-0.3-0.1h-0.1l0,0
				c-0.1,0-0.1,0-0.2-0.1c-0.2-0.2-0.2-0.2-0.3-0.3c-0.1,0-0.2-0.1-0.3-0.2c-0.2-0.1-0.3-0.2-0.4-0.3c0-0.2-0.2-0.2-0.3-0.3
				c-0.2-0.3-0.5-0.4-0.6-0.8c0.3,0,0.3,0.3,0.5,0.3c0.3,0.3,0.6,0.5,0.9,0.8c0.2,0,0.2,0.2,0.4,0.3h0.1
				C72.3,22.3,72.4,22.3,72.5,22.3z"/>
			<path class="st1" d="M72.5,4.8L72.5,4.8c0.2,0.1,0.1,0.2,0.1,0.3c-0.4,0.2-0.7,0.6-1.1,0.9c-0.1,0-0.2,0.1-0.3,0.2
				c0,0-0.1,0.1-0.2,0c0.3-0.6,0.7-1,1.2-1.4C72.4,4.8,72.4,4.9,72.5,4.8z"/>
			<path class="st1" d="M69.5,18.2c-0.2-0.7-0.3-1.4-0.2-2.2h0.1c0.1,0,0.1,0,0.1,0.1v0.1l0,0l0,0c0,0.1,0,0.1,0,0.2l0,0
				c0,0.1,0.1,0.2,0.1,0.3l0,0c0,0.1,0,0.1,0,0.2c0,0.3,0,0.5,0.1,0.8c0,0.1,0,0.1,0,0.2s0,0.1,0,0.2L69.5,18.2
				C69.6,18.3,69.6,18.3,69.5,18.2C69.5,18.3,69.5,18.2,69.5,18.2z"/>
			<path class="st1" d="M75.8,22.9C75.7,23,75.6,23,75.5,23s-0.1,0-0.2,0c-0.3,0.2-0.7,0.1-1,0.1V23c0-0.1,0.1-0.1,0.1-0.1
				c0.4-0.2,0.9-0.3,1.3-0.3C75.9,22.7,75.9,22.8,75.8,22.9z"/>
			<path class="st1" d="M75.4,6.7c-0.5-0.5-1-1.1-1.6-1.4c-0.2-0.1-0.3-0.2-0.1-0.3c0.1,0,0.3,0,0.4,0.1c0.6,0.4,1.1,0.9,1.5,1.5
				l0,0C75.6,6.6,75.5,6.7,75.4,6.7C75.5,6.7,75.4,6.7,75.4,6.7z"/>
			<path class="st1" d="M70.1,19.6c0.2,0.4,0.4,0.9,0.6,1.3c-0.2,0-0.2-0.2-0.4-0.2c-0.1-0.3-0.5-0.5-0.4-1
				C69.9,19.6,70,19.6,70.1,19.6z"/>
			<path class="st1" d="M76.3,22.4c0.3-0.2,0.6-0.3,0.9-0.5c0.1,0,0.1,0,0.1,0.1c-0.3,0.4-0.6,0.6-1.1,0.7
				C76.1,22.6,76.3,22.6,76.3,22.4z"/>
			<path class="st1" d="M73.7,5c-0.1,0.1,0,0.2,0.1,0.3c-0.4-0.1-0.7-0.1-1.1-0.2c-0.1-0.1,0-0.2,0-0.3c0.2-0.1,0.4-0.1,0.6,0
				c0.1,0,0.2,0,0.2,0C73.7,4.9,73.7,4.9,73.7,5z"/>
			<path class="st1" d="M73.2,22.7c0.3,0,0.6,0.1,1,0.1c0,0,0.1,0,0.1,0.1l0.1,0.1v0.1c-0.4,0.1-0.8-0.1-1.2-0.2
				C73.2,22.8,73.1,22.8,73.2,22.7z"/>
			<path class="st1" d="M75.6,6.6c-0.5-0.5-1-1-1.5-1.5C74.7,5.5,75.3,5.9,75.6,6.6z"/>
			<path class="st1" d="M69.8,10.7c0.2,0.3,0,0.6,0,0.9h-0.1c0,0-0.1-0.1-0.1-0.2c-0.2-0.3,0-0.5,0-0.8h0.1
				C69.7,10.6,69.8,10.6,69.8,10.7z"/>
			<path class="st1" d="M77.3,21.9c0.3-0.3,0.6-0.6,0.9-0.9c-0.2,0.4-0.3,0.9-0.8,1C77.3,22,77.3,21.9,77.3,21.9z"/>
			<path class="st1" d="M70.9,7.1c0,0.3-0.2,0.5-0.3,0.8c-0.1,0-0.1,0-0.2,0c0,0,0,0-0.1,0c-0.1-0.3,0.1-0.4,0.2-0.6
				C70.7,7.1,70.8,7.1,70.9,7.1z"/>
			<path class="st1" d="M70.9,7.1c-0.1,0.1-0.2,0.2-0.4,0.1l0,0c0-0.1,0-0.1,0-0.2c0.2-0.3,0.3-0.5,0.5-0.8h0.1h0.1v0.1l0,0
				c-0.1,0,0,0.1-0.1,0.2S71,6.6,70.9,6.7C71,6.9,70.9,7,70.9,7.1L70.9,7.1z"/>
			<path class="st1" d="M69.6,18.9c-0.1-0.2-0.2-0.5-0.1-0.7h0.1h0.1h0.1c0.1,0.2,0.1,0.5,0.1,0.7c0,0,0,0-0.1,0
				C69.7,19,69.7,19,69.6,18.9z"/>
			<path class="st1" d="M69.3,13.2c-0.1-0.2,0-0.4,0-0.7c0.1,0,0.2,0,0.2,0.1c0.1,0.2,0.1,0.5,0,0.7C69.4,13.3,69.4,13.2,69.3,13.2z
				"/>
			<path class="st1" d="M69.5,13.6c0.1,0.2,0.1,0.5,0,0.7c-0.1,0-0.2,0.1-0.2,0c0-0.2-0.1-0.5,0-0.7H69.5
				C69.4,13.6,69.4,13.6,69.5,13.6C69.4,13.6,69.5,13.6,69.5,13.6z"/>
			<path class="st1" d="M69.3,16c-0.1-0.2-0.1-0.4,0-0.7h0.1h0.1h0.1c0.1,0.2,0.1,0.4,0,0.6l0,0C69.4,16.1,69.4,16.1,69.3,16
				C69.3,16.1,69.3,16.1,69.3,16z"/>
			<path class="st1" d="M69.6,12.6c-0.1,0-0.1-0.1-0.2-0.1c-0.1-0.1-0.1-0.3,0-0.4c0.1,0,0.1,0,0.2-0.1h0.1
				C69.6,12.2,69.7,12.4,69.6,12.6z"/>
			<path class="st1" d="M70.1,19.6c-0.1,0-0.1,0.1-0.2,0.1c-0.2-0.2-0.3-0.4-0.2-0.7c0.1,0,0.2,0.1,0.2,0.2
				C70,19.4,70.1,19.5,70.1,19.6z"/>
			<path class="st1" d="M76.3,22.4c0,0.1-0.1,0.2-0.1,0.3c-0.1,0-0.2,0.1-0.3,0.1c0-0.1,0-0.2,0-0.3C76,22.6,76.1,22.5,76.3,22.4z"
				/>
			<path class="st1" d="M70.4,8.3c-0.1,0-0.2,0-0.3,0C70,8.1,70.2,8,70.3,7.9c0,0,0,0.1,0.1,0c0.1,0,0.1,0,0.1,0.1
				C70.6,8.1,70.5,8.2,70.4,8.3z"/>
			<path class="st1" d="M69.5,11.9c-0.1-0.1-0.1-0.3,0.1-0.4c0.1,0,0.1,0,0.2,0h0.1c0,0.2,0,0.3-0.1,0.5h-0.1
				C69.5,12,69.5,12,69.5,11.9z"/>
			<path class="st1" d="M70.3,20.7c0.2,0,0.3,0.2,0.4,0.2c0.1,0.1,0.1,0.1,0.2,0.2c-0.3,0-0.3-0.3-0.5-0.3L70.3,20.7L70.3,20.7z"/>
			<path class="st1" d="M70.9,21.5c0.3,0,0.4,0.1,0.3,0.3C71,21.8,70.9,21.8,70.9,21.5z"/>
			<path class="st1" d="M78.7,20.5c0,0.2-0.1,0.3-0.3,0.3c-0.1-0.2,0-0.3,0.1-0.4C78.7,20.4,78.7,20.4,78.7,20.5z"/>
			<path class="st1" d="M72.7,22.7c0-0.1,0-0.2,0-0.3c0.1,0,0.2,0,0.3,0.1c0,0.1,0,0.2,0,0.2C73,22.8,72.9,22.8,72.7,22.7z"/>
			<path class="st1" d="M69.3,15.4c0-0.1-0.1-0.3,0-0.4h0.1c0,0,0,0.1,0.1,0.1c0.1,0.1,0.1,0.2,0,0.3l0,0l0,0L69.3,15.4L69.3,15.4z"
				/>
			<path class="st1" d="M71.2,6.4C71.2,6.3,71.2,6.3,71.2,6.4c0-0.2,0.1-0.4,0.3-0.3C71.4,6.1,71.3,6.2,71.2,6.4z"/>
			<path class="st1" d="M69.5,14.7c0,0.1,0,0.1,0,0.2c0,0.1,0,0.1-0.1,0.1l0,0C69.4,14.9,69.3,14.7,69.5,14.7L69.5,14.7
				C69.4,14.6,69.5,14.6,69.5,14.7z"/>
			<path class="st1" d="M69.3,14.4c0.1,0,0.2-0.1,0.2,0s0,0.1,0,0.2h-0.1h-0.1C69.2,14.5,69.2,14.4,69.3,14.4z"/>
			<path class="st1" d="M69.5,13.4c0,0.1,0,0.1,0,0.2h-0.1l0,0h-0.1c0-0.1,0-0.2,0-0.2C69.4,13.4,69.4,13.4,69.5,13.4z"/>
			<path class="st1" d="M72.2,22.2c-0.2,0-0.3-0.1-0.4-0.3C71.9,22,72.1,22.1,72.2,22.2z"/>
			<path class="st1" d="M69.5,13.4c-0.1,0-0.1,0-0.2,0c-0.1-0.1,0-0.2,0-0.3c0.1,0,0.1,0.1,0.2,0.1C69.5,13.3,69.5,13.4,69.5,13.4z"
				/>
			<path class="st1" d="M71.6,22.2c0.1,0,0.2,0,0.3,0.2C71.8,22.3,71.7,22.3,71.6,22.2z"/>
			<path class="st1" d="M78.7,20.5c-0.1,0-0.1-0.1-0.2-0.1c0.1,0,0.1-0.1,0.2-0.1C78.9,20.3,78.7,20.4,78.7,20.5z"/>
			<path class="st1" d="M72.4,22.6c0.1,0,0.2,0,0.3,0.1C72.6,22.8,72.5,22.7,72.4,22.6z"/>
			<path class="st1" d="M69.6,16.8c-0.1-0.1-0.1-0.2-0.1-0.3C69.6,16.6,69.7,16.7,69.6,16.8z"/>
			<path class="st1" d="M69.9,19.3c-0.1-0.1-0.2-0.1-0.2-0.2l0,0c0,0,0-0.1,0.1-0.1h0.1C69.9,19,70,19.1,69.9,19.3z"/>
			<path class="st1" d="M73.1,22.8c0-0.1,0-0.2,0-0.2s0.1,0,0.1,0.1s0,0.2,0,0.2S73.1,22.9,73.1,22.8z"/>
			<path class="st1" d="M72.7,4.9c0,0.1,0,0.2,0,0.3c0,0-0.1,0.1-0.1,0C72.6,5.1,72.6,5,72.7,4.9C72.7,4.8,72.7,4.8,72.7,4.9z"/>
			<path class="st1" d="M79.5,19C79.4,19,79.4,19,79.5,19c-0.1-0.1-0.1-0.1,0-0.1c0,0,0,0,0.1,0C79.5,18.9,79.5,19,79.5,19z"/>
			<path class="st1" d="M79.1,19.5v-0.1h0.1L79.1,19.5C79.2,19.5,79.2,19.5,79.1,19.5z"/>
			<path class="st1" d="M70.9,7.1c0-0.2,0.1-0.2,0.2-0.3C71.1,6.9,71,7,70.9,7.1z"/>
			<path class="st1" d="M70.5,8C70.5,8,70.4,8,70.5,8C70.5,7.8,70.5,7.9,70.5,8C70.6,7.9,70.6,8,70.5,8z"/>
			<path class="st1" d="M71.2,6.6c0-0.1-0.1-0.2,0.1-0.2C71.3,6.5,71.3,6.5,71.2,6.6z"/>
			<path class="st1" d="M70.6,7c0,0.1,0,0.1,0,0.2C70.5,7.1,70.5,7.1,70.6,7z"/>
			<path class="st1" d="M74.3,23L74.3,23c-0.1-0.1-0.1-0.2,0-0.2h0.1C74.4,22.9,74.4,23,74.3,23z"/>
			<path class="st1" d="M74.4,22.8l-0.1,0.1l-0.1-0.1C74.2,22.8,74.3,22.8,74.4,22.8z"/>
			<path class="st1" d="M69.7,18c-0.1-0.1-0.1-0.1,0-0.2C69.8,17.8,69.8,17.9,69.7,18z"/>
			<path class="st1" d="M75.4,23c0.1-0.1,0.1-0.1,0.2,0C75.5,23,75.4,23,75.4,23z"/>
			<path class="st1" d="M69.6,17c0-0.1,0-0.1,0-0.2C69.7,16.9,69.6,17,69.6,17z"/>
			<path class="st1" d="M69.5,16.5c0-0.1,0-0.1,0-0.2C69.5,16.4,69.5,16.4,69.5,16.5z"/>
			<path class="st1" d="M72.1,22.5c0.1,0,0.2,0,0.2,0.1C72.3,22.5,72.2,22.5,72.1,22.5z"/>
			<path class="st1" d="M72.5,22.3c-0.1,0-0.1,0-0.2-0.1C72.4,22.2,72.4,22.3,72.5,22.3z"/>
			<path class="st1" d="M69.8,19C69.8,19,69.7,19,69.8,19C69.7,19.1,69.7,19,69.8,19C69.7,19,69.7,19,69.8,19z"/>
			<path class="st1" d="M69.5,11.9l0.1,0.1c0,0.1-0.1,0.1-0.2,0C69.4,12,69.4,12,69.5,11.9z"/>
			<path class="st1" d="M69.7,11.5c0,0.1-0.1,0.1-0.2,0c0-0.1,0-0.1,0-0.2C69.6,11.4,69.6,11.5,69.7,11.5z"/>
			<polygon class="st1" points="79,19.9 79,19.8 79,19.8 			"/>
			<path class="st1" d="M69.8,10.7c0,0,0-0.1-0.1-0.1h0.1C69.8,10.6,69.8,10.6,69.8,10.7z"/>
			<path class="st1" d="M69.5,16.2l-0.1-0.1l0,0h0.1V16.2z"/>
			<path class="st1" d="M69.3,15c0,0,0-0.1,0.1-0.1c0.1,0.1,0.1,0.2,0,0.3C69.4,15.1,69.4,15,69.3,15z"/>
			<path class="st1" d="M69.4,14.5L69.4,14.5l0.1,0.1C69.4,14.6,69.4,14.6,69.4,14.5z"/>
			<path class="st1" d="M77.3,21.9l0.1,0.1l-0.1,0.1L77.2,22C77.2,21.9,77.2,21.9,77.3,21.9z"/>
			<path class="st1" d="M75.6,6.7c-0.1,0-0.1,0-0.2,0C75.4,6.7,75.5,6.7,75.6,6.7L75.6,6.7L75.6,6.7z"/>
			<path class="st1" d="M73.6,4.9c-0.1,0-0.2,0-0.2,0C73.5,4.8,73.5,4.8,73.6,4.9z"/>
			<path class="st1" d="M72.5,4.8c-0.1,0.1-0.1,0.1-0.2,0.1C72.4,4.8,72.4,4.8,72.5,4.8z"/>
			<path class="st1" d="M69.7,18.2L69.7,18.2L69.7,18.2C69.6,18.2,69.6,18.2,69.7,18.2z"/>
			<polygon class="st1" points="69.4,16.1 69.4,16.1 69.4,16.1 69.4,16 			"/>
			<polygon class="st1" points="69.4,13.6 69.4,13.6 69.4,13.7 			"/>
			<path class="st1" d="M69.4,15.4L69.4,15.4L69.4,15.4z"/>
		</g>
		<path class="st1" d="M106.9,8.9c0,0,0-0.1-0.1-0.1l0.1-0.1C107,8.8,106.9,8.8,106.9,8.9z"/>
		<polygon class="st1" points="87.6,14 87.6,14 87.6,14.1 		"/>
		<path class="st1" d="M87.7,14.7L87.7,14.7C87.6,14.6,87.6,14.7,87.7,14.7z"/>
		<path class="st1" d="M97.9,11.6v0.1V11.6C97.8,11.5,97.9,11.5,97.9,11.6z"/>
		<path class="st1" d="M87.7,12.4L87.7,12.4L87.7,12.4L87.7,12.4z"/>
		<path class="st1" d="M106.8,8.1L106.8,8.1L106.8,8.1C106.7,8.2,106.7,8.2,106.8,8.1z"/>
		<path class="st1" d="M97.9,9.6L97.9,9.6L97.9,9.6L97.9,9.6z"/>
		<path class="st1" d="M97.8,8.6C97.8,8.5,97.9,8.5,97.8,8.6L97.8,8.6L97.8,8.6z"/>
	</g>
</g>
<g>
	<polygon class="st0" points="14,27.4 6.9,20.8 14,4.7 14.9,6.7 15.7,4.9 14,1.2 5.2,21.1 14,29.3 16.1,27.4 15.1,26.4 	"/>
	<polygon class="st2" points="21.1,20.8 16.1,25.4 17.2,26.4 22.8,21.1 16.4,6.7 15.7,8.5 	"/>
	<polygon class="st0" points="14,22.4 10.9,19.5 14,12.4 14.4,13.3 14.7,12.5 14,10.8 10.1,19.6 14,23.3 14.9,22.4 14.5,22 	"/>
	<polygon class="st0" points="17.1,19.5 14.9,21.5 15.4,22 17.9,19.6 15.1,13.3 14.7,14.1 	"/>
</g>
</svg>
